<svg width="49" height="47" viewBox="0 0 49 47" fill="none" xmlns="http://www.w3.org/2000/svg">
<path d="M26.7262 11.6818C26.7262 10.3916 25.6622 9.34332 24.3486 9.34332C23.0369 9.34332 21.973 10.3916 21.973 11.6818V20.9459C21.973 21.4902 21.973 22.0473 22.0177 22.5275C22.0698 23.0809 22.1928 23.6985 22.5357 24.3253C22.8766 24.9539 23.3313 25.3956 23.7692 25.7456C24.1511 26.0499 24.6207 26.3577 25.0828 26.6601L30.1621 29.9919C31.2539 30.7066 32.7297 30.4171 33.4582 29.3431C34.1849 28.2692 33.8905 26.8177 32.7986 26.1012L27.7845 22.8134C27.2311 22.4505 26.9498 22.2636 26.7616 22.1133L26.7523 22.106L26.7504 22.0931C26.728 21.8567 26.7262 21.5232 26.7262 20.8689V11.6818ZM0.58252 23.3705C0.58252 10.4594 11.2237 -0.00691986 24.3486 -0.00691986C37.4754 -0.00691986 48.1166 10.4594 48.1166 23.3705C48.1166 36.2816 37.4754 46.7479 24.3486 46.7479C11.2237 46.7479 0.58252 36.2816 0.58252 23.3705Z" fill="#2C2E35"/>
</svg>
