<svg width="42" height="49" viewBox="0 0 42 49" fill="none" xmlns="http://www.w3.org/2000/svg">
<path d="M19.3768 13.0409C18.6318 13.8467 18.0039 14.7523 17.5077 15.7303C16.9941 16.8269 16.89 18.0725 17.2126 19.24C15.6762 18.5167 14.7778 16.8906 14.9817 15.2052C15.1308 13.5877 15.8107 12.0658 16.9174 10.8766C18.1211 9.16082 18.5378 7.0139 18.0647 4.9726C19.4333 5.68293 20.3649 7.01824 20.5574 8.54741C20.7613 10.1417 20.3375 11.7533 19.3768 13.0409ZM18.0647 0.577503C13.4728 0.577503 9.86475 5.62796 9.86475 12.0571C9.86475 18.4848 13.4728 23.5367 18.0647 23.5367C22.6565 23.5367 26.2646 18.4848 26.2646 12.0571C26.2646 5.62796 22.6898 0.577503 18.0647 0.577503Z" fill="#2C2E35"/>
<path d="M9.4714 42.8229C8.60916 41.4442 8.22723 39.8167 8.38926 38.1978C8.38347 35.9843 7.3838 33.8895 5.66656 32.492C7.19139 32.2244 8.75094 32.7278 9.83163 33.836C11.0006 34.9876 11.6617 36.5572 11.6689 38.1978C11.517 39.2857 11.517 40.3896 11.6689 41.4775C11.9322 42.6566 12.6064 43.704 13.5714 44.4302C11.9554 44.8338 10.2613 44.177 9.33975 42.7897L9.4714 42.8229ZM2.91203 29.179C-0.761161 31.9668 -0.564409 38.166 3.33736 43.2815C7.24058 48.3985 13.1779 50.2359 16.8178 47.448C20.4591 44.6602 20.2942 38.4611 16.3924 33.3441C12.4892 28.2271 6.58522 26.3912 2.91203 29.179Z" fill="#2C2E35"/>
<path d="M36.168 29.5727C35.6863 31.1394 34.5998 32.4487 33.1502 33.214C32.1389 33.6278 31.1899 34.1804 30.3305 34.8531C29.4061 35.6315 28.7898 36.7122 28.5916 37.9028C27.5051 36.6036 27.3735 34.7533 28.2632 33.3124C29.0777 31.9062 30.3349 30.811 31.838 30.1962C33.7997 29.169 35.1973 27.3143 35.6429 25.1443C36.6237 26.4709 36.8349 28.2142 36.2013 29.7361L36.168 29.5727ZM37.2169 21.3727C33.0518 19.4385 27.6397 22.4881 24.9502 28.327C22.2608 34.1645 23.3762 40.2653 27.5413 42.1995C31.7078 44.1352 37.1185 41.0855 39.8079 35.2466C42.4988 29.4092 41.4485 23.4719 37.2169 21.3727Z" fill="#2C2E35"/>
</svg>
