<svg width="68" height="57" viewBox="0 0 68 57" fill="none" xmlns="http://www.w3.org/2000/svg">
<path d="M47.4247 20.4586L37.8884 53.4062L66.6291 21.1051C66.8079 20.9006 66.96 20.6851 67.0854 20.4586H47.4247ZM20.0085 20.4586H0.613577C0.739034 20.6867 0.891151 20.9022 1.06993 21.1051L29.413 52.9603L20.0037 20.4539L20.0085 20.4586ZM20.0085 17.2214L24.8048 0.71222H14.5769C13.4337 0.71222 12.4293 1.21479 11.7377 2.1279L0.877035 16.6009C0.731192 16.8007 0.607305 17.0075 0.505371 17.2214H20.0085ZM28.1639 0.71222L23.3676 17.2214H44.0586L39.2622 0.71222H28.1639ZM47.42 17.2214H67.1866C67.0862 17.0059 66.9615 16.7983 66.8126 16.5985L55.9519 2.12554C55.265 1.21479 54.2582 0.71222 53.115 0.71222H42.626L47.42 17.2214ZM44.0609 20.4586L33.7272 56.155H33.699L23.3676 20.4586" fill="#2C2E35"/>
</svg>
