<svg width="79" height="28" viewBox="0 0 79 28" fill="none" xmlns="http://www.w3.org/2000/svg">
<path d="M78.2727 15.2326V26.916C78.2727 27.4838 77.8086 27.9512 77.2439 27.9512H48.8335C48.2688 27.9512 47.8046 27.4838 47.8046 26.916V15.6814C47.8046 14.921 47.0215 14.4261 46.3567 14.7195C46.3222 14.7366 46.28 14.762 46.2369 14.7878L46.2287 14.7927L26.9578 26.9067C26.9529 26.9117 26.9456 26.9165 26.9383 26.9213C26.932 26.9255 26.9257 26.9296 26.9211 26.9338L25.4824 27.8411C24.799 28.2717 23.907 27.7679 23.907 26.9524V15.6814C23.907 14.9121 23.1238 14.4261 22.459 14.7195C22.4246 14.7366 22.3825 14.7618 22.3396 14.7876L22.3311 14.7927L3.05123 26.9067C3.03313 26.916 3.02346 26.9249 3.00578 26.9431L1.5759 27.8411C0.892516 28.2717 0 27.7776 0 26.9524V14.7741C0 14.4168 0.182211 14.078 0.483084 13.8947L22.3311 0.158737C23.0144 -0.271848 23.907 0.223082 23.907 1.04784V12.3184C23.907 13.0788 24.6905 13.5742 25.3545 13.2804C25.3869 13.2646 25.4265 13.241 25.4667 13.2169C25.4719 13.2138 25.4772 13.2107 25.4824 13.2076L44.7534 1.09357C44.7582 1.08899 44.7652 1.08418 44.7722 1.07939C44.7788 1.07487 44.7853 1.07036 44.79 1.06605L44.7989 1.05716L46.2287 0.158737C46.9121 -0.271848 47.8046 0.232397 47.8046 1.04784V13.1618C47.8046 13.73 48.2688 14.1974 48.8335 14.1974H77.2443C77.809 14.1974 78.2727 14.664 78.2727 15.2326Z" fill="#2C2E35"/>
<path d="M78.2727 15.2326V26.916C78.2727 27.4838 77.8086 27.9512 77.2439 27.9512H48.8335C48.2688 27.9512 47.8046 27.4838 47.8046 26.916V15.6814C47.8046 14.921 47.0215 14.4261 46.3567 14.7195C46.3222 14.7366 46.28 14.762 46.2369 14.7878L46.2287 14.7927L26.9578 26.9067C26.9529 26.9117 26.9456 26.9165 26.9383 26.9213C26.932 26.9255 26.9257 26.9296 26.9211 26.9338L25.4824 27.8411C24.799 28.2717 23.907 27.7679 23.907 26.9524V15.6814C23.907 14.9121 23.1238 14.4261 22.459 14.7195C22.4246 14.7366 22.3825 14.7618 22.3396 14.7876L22.3311 14.7927L3.05123 26.9067C3.03313 26.916 3.02346 26.9249 3.00578 26.9431L1.5759 27.8411C0.892516 28.2717 0 27.7776 0 26.9524V14.7741C0 14.4168 0.182211 14.078 0.483084 13.8947L22.3311 0.158737C23.0144 -0.271848 23.907 0.223082 23.907 1.04784V12.3184C23.907 13.0788 24.6905 13.5742 25.3545 13.2804C25.3869 13.2646 25.4265 13.241 25.4667 13.2169C25.4719 13.2138 25.4772 13.2107 25.4824 13.2076L44.7534 1.09357C44.7582 1.08899 44.7652 1.08418 44.7722 1.07939C44.7788 1.07487 44.7853 1.07036 44.79 1.06605L44.7989 1.05716L46.2287 0.158737C46.9121 -0.271848 47.8046 0.232397 47.8046 1.04784V13.1618C47.8046 13.73 48.2688 14.1974 48.8335 14.1974H77.2443C77.809 14.1974 78.2727 14.664 78.2727 15.2326Z" stroke="#2C2E35"/>
</svg>
