<svg width="617" height="769" viewBox="0 0 617 769" fill="none" xmlns="http://www.w3.org/2000/svg">
<path d="M19.793 27.5977H17.9037V15.38H14.5431V26.3622H12.7047V4.82924H14.5431V13.6702H17.9037V4.34686H19.793V27.5977ZM1.1543 7.18488H9.71121V8.84909H3.20442V20.0966C6.35062 20.0457 8.50526 19.9358 11.027 19.3998L11.1825 21.1123C8.47846 21.7046 6.14159 21.8091 2.62556 21.8091H1.1543" fill="#2C2E35"/>
<path d="M35.9143 17.4718H30.8734V23.0461H35.9143V17.4718ZM36.2815 8.20736H30.5063V15.7595H36.2815V8.20736ZM43.8951 24.7559H23.0508V23.0461H28.826V17.4718H24.9401V15.7595H28.5124V8.20736H24.8865V6.48957H41.9012V8.20736H38.2753V15.7595H41.8449V17.4718H37.9109V23.0461H43.8951" fill="#2C2E35"/>
<path d="M61.3412 4.34686H63.3887V13.7211H67.17V15.4899H63.3887V27.5977H61.3412V4.34686ZM59.3447 20.8979L58.1897 22.5032C55.6438 21.249 53.465 18.4887 52.4654 15.3532C51.4176 18.7567 49.1075 21.7555 46.5348 23.0954L45.3262 21.4875C48.6358 19.8554 51.4444 15.4336 51.4685 11.47V8.42031H46.1677V6.7025H58.5568V8.42031H53.4114V11.47C53.4114 15.1924 56.0618 19.29 59.3447 20.8979Z" fill="#2C2E35"/>
<path d="M173.079 -0.000858307H175.981V15.8106H173.079V-0.000858307ZM173.143 19.4767H160.786V25.3913H173.143V19.4767ZM157.883 17.0997H175.981V27.7656H157.883V17.0997ZM154.48 16.1992L153.344 13.8864C159.995 12.1177 164.031 8.57759 164.567 4.11288H154.855V1.80003H167.657C167.689 8.96607 162.675 14.0419 154.48 16.1992ZM200.306 -0.000858307H203.209V20.5701H200.306V-0.000858307ZM185.176 18.6379H188.075V25.134H204.029V27.5109H185.176V18.6379ZM197.471 14.267L195.957 16.6494C192.773 15.5855 190.375 13.3665 189.118 10.5419C187.888 13.5916 185.428 16.0358 182.147 17.2256L180.636 14.8485C184.921 13.3665 187.569 9.70307 187.569 5.8467V4.6273H181.392V2.25033H196.589V4.6273H190.535V5.8467C190.535 9.51548 193.183 12.9539 197.471 14.267ZM222.935 16.1322H217.262V22.371H222.935V16.1322ZM223.439 4.95165H216.817V13.6935H223.439V4.95165ZM232.835 24.8096H207.553V22.371H214.362V16.1322H209.758V13.6908H213.917V4.95165H209.694V2.50762H230.503V4.95165H226.277V13.6908H230.442V16.1322H225.899V22.371H232.835" fill="#2C2E35"/>
<path d="M17.2154 83.4369V79.5805H12.2014C12.3836 80.1701 12.4908 80.8133 12.4908 81.5101C12.4908 82.2068 12.3836 82.85 12.2014 83.4369H17.2154ZM4.61456 89.598H6.61109V95.2231H19.8927V96.9355H4.61456V89.598ZM6.61109 85.5245C8.86756 85.5004 10.572 83.8389 10.5479 81.5101C10.572 79.208 8.86756 77.5438 6.61109 77.4902C4.30102 77.5438 2.62072 79.208 2.62072 81.5101C2.62072 83.8389 4.30102 85.5004 6.61109 85.5245ZM19.212 91.4203H17.2154V85.0958H11.3357C10.2584 86.4947 8.57813 87.3201 6.61109 87.2933C3.19958 87.3201 0.675114 84.9135 0.731391 81.5101C0.675114 78.1093 3.19958 75.6947 6.61109 75.6706C8.55401 75.6947 10.2343 76.5013 11.2821 77.8681H17.2154V74.2234H19.212" fill="#2C2E35"/>
<path d="M38.862 74.2222H40.8558V80.1689H44.3209V81.8787H40.8558V88.364H38.862V74.2222ZM25.9476 89.5941H40.8558V97.4141H38.862V91.253H25.9476V89.5941ZM34.3464 81.9886H26.0521V85.3652C30.0934 85.3652 33.0064 85.2554 36.6028 84.6122L36.7609 86.33C33.1109 86.9464 30.0666 87.1045 25.8404 87.0777H24.0556V80.3833H32.3498V77.2746H24.002V75.6158H34.3464" fill="#2C2E35"/>
<path d="M64.5964 97.4746H62.5998V85.257H57.6125V83.5472H62.5998V74.2238H64.5964V97.4746ZM51.6257 81.7784V79.9025H46.3757V78.2383H51.6257V74.6526H53.6195V78.2383H58.7676V79.9025H53.5686V81.7784C53.5954 85.608 56.1681 89.3813 59.5555 90.9383L58.3978 92.5436C55.8009 91.3403 53.649 88.7971 52.6226 85.7393C51.6257 88.9793 49.5005 91.6592 46.8983 92.9215L45.7969 91.3671C49.1065 89.7592 51.6257 85.7983 51.6257 81.7784Z" fill="#2C2E35"/>
<path d="M161.784 93.0004C164.812 92.9682 166.61 89.9453 166.578 84.2559C166.61 78.6334 164.78 75.5167 161.784 75.5167C158.822 75.5167 156.992 78.6334 156.992 84.2559C156.992 89.9453 158.79 92.9682 161.784 93.0004ZM153.586 84.2559C153.618 76.8969 156.679 72.5903 161.784 72.6224C166.924 72.5903 169.984 76.8969 169.984 84.2559C169.984 91.7167 166.956 95.959 161.784 95.959C156.646 95.959 153.618 91.7167 153.586 84.2559Z" fill="#2C2E35"/>
<path d="M181.894 95.6367H178.488V76.3522H178.365L173.066 79.887V76.6068L178.616 72.8817H181.894" fill="#2C2E35"/>
<path d="M195.317 93.0004C198.345 92.9682 200.143 89.9453 200.111 84.2559C200.143 78.6334 198.313 75.5167 195.317 75.5167C192.356 75.5167 190.525 78.6334 190.525 84.2559C190.525 89.9453 192.324 92.9682 195.317 93.0004ZM187.119 84.2559C187.151 76.8969 190.212 72.5903 195.317 72.6224C200.457 72.5903 203.517 76.8969 203.517 84.2559C203.517 91.7167 200.489 95.959 195.317 95.959C190.18 95.959 187.151 91.7167 187.119 84.2559Z" fill="#2C2E35"/>
<path d="M208.366 99.043H205.404L212.589 71.8527H215.556" fill="#2C2E35"/>
<path d="M225.955 93.0645C228.635 93.0645 230.653 90.9125 230.685 88.2433C230.653 85.6411 228.696 83.5508 226.016 83.5508C223.307 83.5508 221.225 85.7698 221.225 88.3103C221.225 90.816 223.181 93.0645 225.955 93.0645ZM217.567 85.0301C217.534 77.1244 220.908 72.59 226.268 72.6249C230.336 72.59 233.207 75.1949 233.71 78.7967H230.366C229.926 76.9636 228.509 75.613 226.268 75.6451C222.8 75.613 220.783 78.6654 220.783 83.8108H221.037C222.232 81.8813 224.347 80.7557 226.775 80.7235C230.746 80.7557 233.933 83.8429 233.962 88.1817C233.933 92.6169 230.746 95.9909 225.955 95.9588C221.857 95.9266 217.534 93.4209 217.567 85.0301Z" fill="#2C2E35"/>
<path d="M245.373 82.5851C247.672 82.5529 249.374 81.1084 249.342 78.9216C249.374 76.8635 247.736 75.4163 245.373 75.3842C242.913 75.4163 241.302 76.8313 241.337 78.9216C241.302 81.1084 242.974 82.5529 245.373 82.5851ZM245.373 93.0635C248.24 93.0983 250.103 91.552 250.103 89.3357C250.103 86.9881 248.085 85.2837 245.373 85.2837C242.596 85.2837 240.578 86.9881 240.578 89.3357C240.578 91.552 242.409 93.0983 245.373 93.0635ZM237.172 89.5903C237.143 86.6666 239.19 84.2895 241.776 83.8687V83.7428C239.539 83.1961 237.995 81.1379 237.995 78.6617C237.995 75.1591 241.114 72.5891 245.373 72.6212C249.564 72.5891 252.654 75.1591 252.686 78.6617C252.654 81.1379 251.11 83.1961 248.902 83.7428V83.8687C251.459 84.2895 253.538 86.6666 253.57 89.5903C253.538 93.2859 250.132 95.9551 245.373 95.9551C240.517 95.9551 237.143 93.2859 237.172 89.5903Z" fill="#2C2E35"/>
<path d="M265.093 93.0645C267.773 93.0645 269.791 90.9125 269.823 88.2433C269.791 85.6411 267.835 83.5508 265.155 83.5508C262.446 83.5508 260.363 85.7698 260.363 88.3103C260.363 90.816 262.32 93.0645 265.093 93.0645ZM256.705 85.0301C256.673 77.1244 260.047 72.59 265.407 72.6249C269.475 72.59 272.345 75.1949 272.849 78.7967H269.504C269.065 76.9636 267.647 75.613 265.407 75.6451C261.939 75.613 259.921 78.6654 259.921 83.8108H260.176C261.371 81.8813 263.485 80.7557 265.913 80.7235C269.885 80.7557 273.071 83.8429 273.101 88.1817C273.071 92.6169 269.885 95.9909 265.093 95.9588C260.996 95.9266 256.673 93.4209 256.705 85.0301Z" fill="#2C2E35"/>
<path d="M285.138 95.6367H281.732V76.3522H281.609L276.311 79.887V76.6068L281.861 72.8817H285.138" fill="#2C2E35"/>
<path d="M292.196 99.043H289.234L296.419 71.8527H299.386" fill="#2C2E35"/>
<path d="M310.16 95.6367H306.751V76.3522H306.628L301.332 79.887V76.6068L306.879 72.8817H310.16" fill="#2C2E35"/>
<path d="M315.834 93.1283L323.59 85.1556C326.018 82.5856 327.248 81.1385 327.248 79.1795C327.248 76.9284 325.449 75.4839 323.086 75.516C320.626 75.4839 319.05 77.0918 319.05 79.5011H315.834C315.834 75.3553 318.921 72.5896 323.212 72.6244C327.467 72.5896 330.464 75.3553 330.464 79.0508C330.464 81.5887 329.266 83.6147 325.104 87.7927L320.564 92.4852V92.6781H330.841V95.6367H315.834" fill="#2C2E35"/>
<path d="M342.182 84.966C344.862 84.9312 346.942 82.7149 346.974 80.2092C346.942 77.733 344.956 75.4846 342.244 75.5167C339.534 75.4846 337.517 77.6392 337.517 80.2092C337.549 82.8757 339.47 84.9312 342.182 84.966ZM350.632 83.4867C350.632 91.4246 347.29 95.959 341.93 95.959C337.833 95.959 334.965 93.3541 334.427 89.6585H337.771C338.24 91.5881 339.66 92.9361 341.93 92.9361C345.366 92.9361 347.384 89.8837 347.416 84.6445H347.103C345.934 86.6035 343.822 87.7612 341.426 87.729C337.423 87.7612 334.236 84.6445 334.236 80.2735C334.236 75.9669 337.391 72.5581 342.244 72.6251C346.344 72.6251 350.632 75.1308 350.632 83.4867Z" fill="#2C2E35"/>
<path d="M364.561 88.306V76.9914H364.373L357.311 88.113V88.306H364.561ZM353.779 88.4346L363.615 72.8778H367.776V88.306H370.805V91.1976H367.776V95.6328H364.561V91.1976H353.779" fill="#2C2E35"/>
<path d="M19.1056 167.351H17.1117V144.1H19.1056V167.351ZM7.02992 160.225C9.28907 160.255 10.8649 157.762 10.8649 153.959C10.8649 150.21 9.28907 147.718 7.02992 147.691C4.71985 147.718 3.14411 150.21 3.14411 153.959C3.14411 157.762 4.71985 160.255 7.02992 160.225ZM7.02992 145.871C10.3905 145.896 12.8319 149.028 12.8587 153.959C12.8319 158.941 10.3905 162.077 7.02992 162.101C3.61841 162.077 1.20117 158.941 1.20117 153.959C1.20117 149.028 3.61841 145.896 7.02992 145.871ZM40.6412 144.103H42.5841V167.354H40.6412V144.103ZM30.7176 148.441H25.7812V159.424H30.7176V148.441ZM32.6096 152.834H36.0747V144.585H37.964V166.172H36.0747V154.549H32.6096V161.083H23.8409V146.783H32.6096M62.5467 144.103H64.5432V155.994H62.5467V144.103ZM49.7368 157.119H64.5432V162.744H51.7306V165.368H65.3821V167.029H49.7877V161.19H62.5467V158.834H49.7368V157.119ZM52.2049 153.531C54.4346 153.531 56.1418 152.14 56.1418 150.103C56.1418 148.066 54.4346 146.649 52.2049 146.673C49.8922 146.649 48.2119 148.066 48.2119 150.103C48.2119 152.14 49.8922 153.531 52.2049 153.531ZM58.0846 150.103C58.0846 153.129 55.5896 155.219 52.2049 155.246C48.7398 155.219 46.2449 153.129 46.2717 150.103C46.2449 147.075 48.7398 144.96 52.2049 144.96C55.5896 144.96 58.0846 147.075 58.0846 150.103Z" fill="#2C2E35"/>
<path d="M160.278 151.162C158.419 151.194 157.095 152.191 157.063 153.475C157.095 154.472 157.883 155.212 159.71 155.662L162.358 156.241C165.451 156.98 166.93 158.489 166.962 160.869C166.93 163.953 164.376 166.172 160.091 166.14C156.087 166.172 153.721 164.339 153.281 161.188H156.685C156.969 162.701 158.104 163.473 160.091 163.503C162.203 163.471 163.588 162.573 163.559 161.126C163.588 160.033 162.771 159.325 160.973 158.939L158.386 158.363C155.393 157.656 153.817 156.016 153.785 153.671C153.817 150.648 156.401 148.557 160.278 148.528C164.001 148.557 166.332 150.487 166.649 153.411H163.494C163.181 152.063 162.109 151.194 160.278 151.162Z" fill="#2C2E35"/>
<path d="M180.762 148.786H184.042V165.82H180.823V162.864H180.636C179.877 164.697 178.176 166.045 175.654 166.015C172.438 166.045 170.168 163.828 170.168 159.583V148.786H173.448V159.2C173.448 161.513 174.834 162.992 176.852 162.992C178.65 162.992 180.762 161.642 180.762 158.75" fill="#2C2E35"/>
<path d="M195.636 163.312C198.538 163.312 200.02 160.708 200.049 157.269C200.02 153.927 198.57 151.39 195.636 151.422C192.798 151.39 191.286 153.734 191.286 157.269C191.286 160.871 192.83 163.312 195.636 163.312ZM188.07 148.785H191.286V151.548H191.538C192.106 150.457 193.24 148.56 196.33 148.527C200.366 148.56 203.362 151.805 203.33 157.336C203.362 162.83 200.427 166.142 196.391 166.142C193.336 166.142 192.136 164.277 191.538 163.184H191.348V172.186H188.07" fill="#2C2E35"/>
<path d="M217.763 155.79C217.763 153.22 216.123 151.291 213.599 151.291C210.986 151.291 209.281 153.381 209.123 155.79H217.763ZM205.846 157.398C205.846 152.159 208.901 148.56 213.537 148.528C217.383 148.56 221.009 150.969 220.976 157.141V158.299H209.123C209.188 161.576 211.047 163.409 213.853 163.377C215.684 163.409 216.911 162.573 217.447 161.512H220.789C220.033 164.31 217.479 166.172 213.792 166.14C208.871 166.172 205.846 162.702 205.846 157.398Z" fill="#2C2E35"/>
<path d="M224.248 148.785H227.402V151.486H227.59C228.19 149.653 229.889 148.528 231.813 148.528C232.226 148.528 232.888 148.56 233.202 148.592V151.805C232.95 151.711 232.194 151.58 231.5 151.615C229.227 151.58 227.528 153.22 227.528 155.407V165.818H224.248" fill="#2C2E35"/>
<path d="M243.476 163.311C246.376 163.311 247.858 160.706 247.887 157.267C247.858 153.926 246.408 151.388 243.476 151.42C240.636 151.388 239.124 153.733 239.124 157.267C239.124 160.869 240.668 163.311 243.476 163.311ZM235.908 143.061H239.186V151.546H239.379C239.974 150.455 241.078 148.558 244.17 148.526C248.206 148.558 251.2 151.803 251.232 157.334C251.2 162.828 248.268 166.141 244.232 166.141C241.174 166.141 239.974 164.275 239.379 163.182H239.124V165.819H235.908" fill="#2C2E35"/>
<path d="M260.051 163.504C262.763 163.504 264.371 161.704 264.342 159.648V158.104L260.432 158.362C258.288 158.523 256.932 159.356 256.899 161.06C256.932 162.668 258.255 163.504 260.051 163.504ZM259.925 155.918C261.061 155.824 263.615 155.693 264.342 155.66V154.31C264.342 152.383 263.205 151.26 260.935 151.225C259.011 151.26 257.845 152.158 257.529 153.409H254.252C254.533 150.614 257.119 148.559 261.061 148.527C263.741 148.559 267.619 149.556 267.619 154.505V165.817H264.403V163.504H264.277C263.68 164.759 262.131 166.203 259.357 166.203C256.173 166.203 253.716 164.341 253.684 160.996C253.716 157.14 256.964 156.111 259.925 155.918Z" fill="#2C2E35"/>
<path d="M278.748 165.818H275.341V146.534H275.218L269.92 150.069V146.788L275.47 143.063H278.748" fill="#2C2E35"/>
<path d="M284.412 163.31L292.168 155.337C294.596 152.767 295.826 151.32 295.826 149.361C295.826 147.11 294.028 145.666 291.664 145.698C289.204 145.666 287.628 147.273 287.628 149.683H284.412C284.412 145.537 287.499 142.771 291.79 142.806C296.046 142.771 299.042 145.537 299.042 149.232C299.042 151.77 297.844 153.796 293.682 157.974L289.142 162.667V162.86H299.42V165.818H284.412" fill="#2C2E35"/>
<path d="M310.762 155.148C313.442 155.113 315.522 152.897 315.554 150.391C315.522 147.915 313.536 145.666 310.824 145.698C308.115 145.666 306.097 147.821 306.097 150.391C306.129 153.057 308.05 155.113 310.762 155.148ZM319.212 153.668C319.212 161.606 315.87 166.141 310.51 166.141C306.413 166.141 303.545 163.536 303.007 159.84H306.351C306.82 161.77 308.241 163.118 310.51 163.118C313.946 163.118 315.964 160.065 315.996 154.826H315.683C314.514 156.785 312.402 157.943 310.007 157.911C306.003 157.943 302.816 154.826 302.816 150.455C302.816 146.149 305.971 142.74 310.824 142.807C314.924 142.807 319.212 145.312 319.212 153.668Z" fill="#2C2E35"/>
<path d="M333.139 158.492V147.177H332.951L325.887 158.299V158.492H333.139ZM322.357 158.62L332.193 143.063H336.355V158.492H339.383V161.383H336.355V165.818H333.139V161.383H322.357" fill="#2C2E35"/>
<path d="M354.44 160.163C356.426 160.163 357.436 158.587 357.468 156.178C357.436 153.83 356.426 152.289 354.44 152.319C352.516 152.289 351.446 153.959 351.479 156.178C351.446 158.458 352.548 160.163 354.44 160.163ZM348.576 156.24C348.576 152.094 350.878 149.717 353.81 149.746C355.89 149.717 356.868 151.065 357.214 151.869H357.404V150.006H360.054V158.748C360.116 159.903 360.555 160.45 361.44 160.482C363.206 160.45 364.372 158.394 364.404 155.339C364.404 149.684 360.4 145.954 354.694 145.954C348.734 145.986 344.95 150.488 344.918 156.24C344.95 162.443 348.26 166.557 354.566 166.525C356.742 166.493 358.256 166.335 360.054 165.817V168.326C358.444 168.808 356.584 169.098 354.566 169.098C346.936 169.098 342.364 164.116 342.332 156.24C342.332 148.784 347.443 143.384 354.694 143.384C361.976 143.384 366.99 148.462 366.99 155.277C366.958 160.099 364.53 162.894 361.249 162.862C359.296 162.862 357.782 161.832 357.562 160.42H357.404C356.994 161.189 356.018 162.733 353.81 162.733C350.814 162.733 348.576 160.324 348.576 156.24Z" fill="#2C2E35"/>
<path d="M373.79 165.818H370.51V148.785H373.664V151.548H373.852C374.639 149.747 376.282 148.56 378.769 148.528C382.208 148.56 384.477 150.776 384.51 154.954V165.818H381.168V155.404C381.2 152.928 379.876 151.451 377.7 151.419C375.398 151.451 373.79 152.995 373.79 155.726" fill="#2C2E35"/>
<path d="M394.024 163.504C396.736 163.504 398.344 161.704 398.312 159.648V158.104L394.404 158.362C392.258 158.523 390.904 159.356 390.869 161.06C390.904 162.668 392.225 163.504 394.024 163.504ZM393.895 155.918C395.031 155.824 397.585 155.693 398.312 155.66V154.31C398.312 152.383 397.175 151.26 394.905 151.225C392.984 151.26 391.815 152.158 391.505 153.409H388.224C388.503 150.614 391.089 148.559 395.031 148.527C397.711 148.559 401.589 149.556 401.589 154.505V165.817H398.376V163.504H398.25C397.65 164.759 396.101 166.203 393.33 166.203C390.143 166.203 387.686 164.341 387.656 160.996C387.686 157.14 390.936 156.111 393.895 155.918Z" fill="#2C2E35"/>
<path d="M413.218 165.818H409.689L403.635 148.785H407.164L411.39 161.898H411.516L415.74 148.785H419.272" fill="#2C2E35"/>
<path d="M432.543 155.79C432.543 153.22 430.902 151.291 428.378 151.291C425.765 151.291 424.061 153.381 423.903 155.79H432.543ZM420.625 157.398C420.625 152.159 423.68 148.56 428.316 148.528C432.162 148.56 435.788 150.969 435.756 157.141V158.299H423.903C423.967 161.576 425.827 163.409 428.633 163.377C430.46 163.409 431.69 162.573 432.226 161.512H435.568C434.812 164.31 432.258 166.172 428.571 166.14C423.651 166.172 420.625 162.702 420.625 157.398Z" fill="#2C2E35"/>
<path d="M439.027 148.785H442.179V151.486H442.366C442.967 149.653 444.666 148.528 446.593 148.528C447.005 148.528 447.667 148.56 447.978 148.592V151.805C447.726 151.711 446.973 151.58 446.279 151.615C444.004 151.58 442.308 153.22 442.308 155.407V165.818H439.027" fill="#2C2E35"/>
<path d="M456.08 157.396C456.08 152.157 459.138 148.558 463.836 148.525C467.649 148.558 470.426 150.841 470.771 154.311H467.555C467.207 152.703 465.98 151.353 463.9 151.353C461.185 151.353 459.39 153.636 459.36 157.267C459.39 160.998 461.156 163.31 463.9 163.31C465.757 163.31 467.145 162.252 467.555 160.419H470.771C470.426 163.728 467.839 166.17 463.9 166.14C459.012 166.17 456.08 162.506 456.08 157.396Z" fill="#2C2E35"/>
<path d="M480.975 163.377C484.004 163.377 485.454 160.612 485.454 157.399C485.454 154.121 484.004 151.323 480.975 151.355C477.918 151.323 476.468 154.121 476.438 157.399C476.468 160.612 477.918 163.377 480.975 163.377ZM473.158 157.399C473.158 152.063 476.245 148.56 480.975 148.528C485.673 148.56 488.763 152.063 488.795 157.399C488.763 162.638 485.673 166.173 480.975 166.14C476.245 166.173 473.158 162.638 473.158 157.399Z" fill="#2C2E35"/>
<path d="M492.008 148.785H495.162V151.548H495.35C496.044 149.653 497.713 148.56 499.889 148.528C502.127 148.56 503.673 149.685 504.429 151.548H504.558C505.375 149.718 507.173 148.56 509.599 148.528C512.627 148.56 514.771 150.489 514.771 154.378V165.818H511.493V154.699C511.493 152.416 510.073 151.451 508.339 151.419C506.227 151.451 504.997 152.899 504.997 154.957V165.818H501.781V154.507C501.749 152.673 500.49 151.451 498.691 151.419C496.864 151.451 495.288 153.027 495.288 155.34V165.818H492.008" fill="#2C2E35"/>
<path d="M19.0585 308.057H17.011V284.806H19.0585V308.057ZM7.92621 297.61C10.0541 297.643 11.5226 296.595 11.5494 294.987C11.5226 293.355 10.0541 292.256 7.92621 292.256C5.82785 292.256 4.32979 293.355 4.35659 294.987C4.32979 296.595 5.82785 297.643 7.92621 297.61ZM0.94505 287.649H6.98292V284.806H8.97673V287.649H14.91V289.308H0.94505V287.649ZM6.98292 301.735V299.216C4.2253 298.897 2.4405 297.316 2.4673 294.987C2.4405 292.36 4.64602 290.648 7.92621 290.648C11.2359 290.648 13.4682 292.36 13.4414 294.987C13.4682 297.291 11.7075 298.873 8.97673 299.192V301.657C11.1823 301.553 13.4415 301.389 15.5398 301.097L15.6979 302.702C10.5793 303.503 5.01316 303.587 0.786962 303.557L0.470703 301.845C2.44043 301.845 4.67017 301.818 6.98292 301.735Z" fill="#2C2E35"/>
<path d="M38.6509 284.806H40.6984V294.239H44.4797V296.002H40.6984V308.057H38.6509V284.806ZM36.6008 300.984L35.3439 302.643C32.8221 301.277 30.7479 298.551 29.7242 295.306C28.7005 298.733 26.5458 301.654 23.9999 303.072L22.6895 301.413C26.0232 299.728 28.6737 295.279 28.6737 291.023V286.789H30.6675V291.023C30.6675 295.123 33.3206 299.352 36.6008 300.984Z" fill="#2C2E35"/>
<path d="M62.599 290.273H57.2446V293.167H62.599V290.273ZM57.0328 306.347C60.5247 306.371 62.7035 305.326 62.7035 303.667C62.7035 301.872 60.5247 300.856 57.0328 300.824C53.565 300.856 51.389 301.872 51.4158 303.667C51.389 305.326 53.565 306.371 57.0328 306.347ZM57.0328 299.216C61.7843 299.248 64.7001 300.856 64.7001 303.667C64.7001 306.425 61.7843 307.979 57.0328 308.006C52.3082 307.979 49.3924 306.425 49.4219 303.667C49.3924 300.856 52.3082 299.248 57.0328 299.216ZM55.2989 288.236H48.7895V295.204H55.2989V288.236ZM64.5955 298.578H62.599V294.877H57.2446V296.863H46.793V286.577H57.2446V288.561H62.599V284.806H64.5955" fill="#2C2E35"/>
<path d="M177.109 292.224L175.976 294.668C171.436 293.931 167.494 291.516 165.696 288.172C163.9 291.516 159.961 293.931 155.482 294.668L154.282 292.224C159.706 291.455 164.152 288.016 164.184 284.189V282.713H167.212V284.189C167.212 287.952 171.688 291.455 177.109 292.224ZM153.084 297.369H178.246V299.875H167.019V309.836H164.184V299.875H153.084" fill="#2C2E35"/>
<path d="M204.149 309.836H201.376V281.745H204.149V309.836ZM192.484 292.285H195.951V282.388H198.725V308.424H195.951V294.925H192.484V292.285ZM188.45 300.389V287.66H185.358V300.515C186.368 300.483 187.408 300.451 188.45 300.389ZM182.71 300.582V287.66H180.566V285.221H193.242V287.66H191.098V300.226C192.042 300.164 192.955 300.07 193.81 299.939L193.998 302.126C189.646 302.959 183.908 303.091 180.379 303.091L179.998 300.582" fill="#2C2E35"/>
<path d="M210.574 283.801H229.741V292.61H213.536V296.724H230.374V299.101H210.636V290.166H226.841V286.245H210.574V283.801ZM232.834 306.428H207.549V303.989H232.834V306.428Z" fill="#2C2E35"/>
<path d="M256.273 292.613H260.686V295.183H256.273V309.84H253.373V281.746H256.273V292.613ZM245.995 293.64H238.743V300.712H245.995V293.64ZM235.844 284.062H238.743V291.327H245.995V284.062H248.895V303.218H235.844" fill="#2C2E35"/>
<path d="M275.873 283.611H278.898C276.722 286.564 275.05 292.508 275.05 297.747C275.05 303.056 276.722 309.003 278.898 311.959H275.873C273.099 307.971 271.646 303.343 271.646 297.747C271.646 292.222 273.099 287.564 275.873 283.611Z" fill="#2C2E35"/>
<path d="M289.809 287.146C287.068 287.146 285.331 288.559 285.331 290.491C285.331 292.643 287.633 293.479 289.367 293.961L291.572 294.538C294.41 295.213 297.975 296.818 297.943 300.902C297.975 304.759 294.946 307.586 289.68 307.586C284.701 307.586 281.579 305.048 281.359 300.902H284.763C284.953 303.378 287.097 304.566 289.68 304.566C292.551 304.566 294.601 303.089 294.601 300.902C294.601 298.876 292.77 298.075 290.375 297.432L287.791 296.724C284.165 295.73 281.957 293.862 281.928 290.678C281.957 286.758 285.363 284.158 289.871 284.188C294.41 284.158 297.565 286.79 297.688 290.491H294.41C294.159 288.366 292.36 287.146 289.809 287.146Z" fill="#2C2E35"/>
<path d="M311.933 290.168H315.214V307.204H311.995V304.248H311.808C311.049 306.079 309.347 307.429 306.826 307.4C303.61 307.429 301.34 305.21 301.34 300.965V290.168H304.62V300.585C304.62 302.898 306.006 304.374 308.024 304.374C309.822 304.374 311.933 303.024 311.933 300.135" fill="#2C2E35"/>
<path d="M326.8 304.695C329.7 304.695 331.182 302.088 331.212 298.649C331.182 295.31 329.732 292.772 326.8 292.805C323.96 292.772 322.448 295.117 322.448 298.649C322.448 302.251 323.992 304.695 326.8 304.695ZM319.232 290.165H322.448V292.928H322.7C323.268 291.84 324.402 289.94 327.492 289.908C331.528 289.94 334.527 293.185 334.492 298.719C334.527 304.213 331.589 307.523 327.554 307.523C324.501 307.523 323.298 305.657 322.7 304.564H322.51V313.568H319.232" fill="#2C2E35"/>
<path d="M348.933 297.176C348.933 294.606 347.293 292.674 344.769 292.674C342.156 292.674 340.451 294.764 340.293 297.176H348.933ZM337.016 298.784C337.016 293.545 340.071 289.943 344.707 289.911C348.553 289.943 352.178 292.355 352.146 298.527V299.684H340.293C340.357 302.959 342.217 304.792 345.023 304.76C346.854 304.792 348.081 303.959 348.617 302.898H351.959C351.203 305.693 348.649 307.555 344.962 307.523C340.041 307.555 337.016 304.085 337.016 298.784Z" fill="#2C2E35"/>
<path d="M355.412 290.169H358.566V292.87H358.754C359.354 291.037 361.053 289.912 362.977 289.912C363.39 289.912 364.052 289.944 364.366 289.976V293.189C364.114 293.095 363.358 292.964 362.664 293.002C360.391 292.964 358.692 294.607 358.692 296.791V307.205H355.412" fill="#2C2E35"/>
<path d="M374.646 304.696C377.546 304.696 379.028 302.089 379.057 298.65C379.028 295.311 377.578 292.773 374.646 292.805C371.805 292.773 370.294 295.118 370.294 298.65C370.294 302.252 371.838 304.696 374.646 304.696ZM367.078 284.444H370.356V292.929H370.549C371.144 291.841 372.248 289.941 375.34 289.908C379.376 289.941 382.37 293.186 382.402 298.72C382.37 304.214 379.438 307.523 375.402 307.523C372.344 307.523 371.144 305.658 370.549 304.565H370.294V307.205H367.078" fill="#2C2E35"/>
<path d="M391.221 304.89C393.933 304.89 395.541 303.089 395.511 301.034V299.487L391.601 299.745C389.458 299.908 388.102 300.739 388.069 302.446C388.102 304.054 389.425 304.89 391.221 304.89ZM391.095 297.3C392.231 297.207 394.785 297.075 395.511 297.043V295.693C395.511 293.768 394.375 292.643 392.105 292.611C390.181 292.643 389.015 293.543 388.699 294.792H385.422C385.703 291.997 388.289 289.941 392.231 289.909C394.911 289.941 398.789 290.941 398.789 295.888V307.203H395.573V304.89H395.447C394.85 306.141 393.301 307.586 390.527 307.586C387.343 307.586 384.886 305.723 384.854 302.382C384.886 298.525 388.134 297.493 391.095 297.3Z" fill="#2C2E35"/>
<path d="M404.83 311.959H401.805C403.981 309 405.65 303.056 405.65 297.817C405.65 292.508 403.981 286.562 401.805 283.611H404.83C407.604 287.593 409.054 292.222 409.054 297.817C409.054 303.343 407.604 308.001 404.83 311.959Z" fill="#2C2E35"/>
<path d="M15.9615 354.683H18.0089V364.116H21.7902V365.879H18.0089V377.934H15.9615V354.683ZM13.9114 370.861L12.6545 372.52C10.1327 371.153 8.05845 368.428 7.03473 365.183C6.01101 368.61 3.85637 371.531 1.31047 372.949L0 371.29C3.33379 369.604 5.98421 365.156 5.98421 360.9V356.666H7.97806V360.9C7.97806 365 10.6312 369.229 13.9114 370.861Z" fill="#2C2E35"/>
<path d="M39.9075 372.897H29.2496V375.896H39.9075V372.897ZM27.2531 368.291H29.2496V371.236H39.9075V368.291H41.904V377.611H27.2531V368.291ZM29.3032 364.751C31.6106 364.751 33.264 363.228 33.2399 361.114C33.264 358.967 31.6106 357.472 29.3032 357.472C26.9663 357.472 25.3128 358.967 25.3128 361.114C25.3128 363.228 26.9663 364.751 29.3032 364.751ZM35.1293 360.256H39.9075V354.682H41.904V367.111H39.9075V361.915H35.1293C34.7354 364.673 32.3985 366.495 29.3032 366.522C25.8354 366.495 23.3672 364.298 23.4208 361.114C23.3672 357.952 25.8354 355.727 29.3032 355.754C32.3717 355.727 34.7086 357.55 35.1293 360.256Z" fill="#2C2E35"/>
<path d="M61.5492 354.686H63.5431V360.632H66.9573V362.347H63.5431V368.723H61.5492V354.686ZM56.2457 376.224C59.6867 376.224 61.7851 375.23 61.8119 373.598C61.7851 371.936 59.6867 370.974 56.2457 370.974C52.8074 370.974 50.6796 371.936 50.6796 373.598C50.6796 375.23 52.8074 376.224 56.2457 376.224ZM56.2457 369.31C60.9194 369.342 63.7548 370.891 63.7548 373.598C63.7548 376.302 60.9194 377.856 56.2457 377.883C51.5478 377.856 48.6857 376.302 48.6857 373.598C48.6857 370.891 51.5478 369.342 56.2457 369.31ZM59.0301 365.992L58.0841 367.597C55.4605 366.689 53.4881 364.84 52.4912 362.538C51.521 365.185 49.3932 367.246 46.6892 368.243L45.6387 366.635C49.0529 365.427 51.4433 362.428 51.4674 359.083V358.113H46.2711V356.403H58.5558V358.113H53.4613V359.083C53.4372 362.133 55.6695 364.84 59.0301 365.992Z" fill="#2C2E35"/>
<path d="M176.737 380.018H173.963V365.49H170.428V378.605H167.719V352.503H170.428V363.048H173.963V351.927H176.737V380.018ZM154.035 355.333H164.377V357.713H156.935V370.761C160.341 370.729 162.895 370.6 165.827 369.989L166.079 372.433C162.737 373.17 159.901 373.267 155.866 373.267H154.035" fill="#2C2E35"/>
<path d="M202.256 356.169C202.256 358.803 202.256 361.729 201.5 365.747H205.471V368.191H194.31V380.084H191.348V368.191H180.312V365.747H198.536C199.356 361.762 199.356 358.803 199.356 356.169V356.107H183.402V353.727H202.256" fill="#2C2E35"/>
<path d="M226.403 351.926H229.364V359.384H233.212V361.889H229.364V369.348H226.403V351.926ZM220.285 377.639C224.227 377.607 226.622 376.645 226.655 374.809C226.622 373.043 224.227 372.014 220.285 371.982C216.281 372.014 213.885 373.043 213.917 374.809C213.885 376.645 216.281 377.607 220.285 377.639ZM220.285 369.669C226.054 369.701 229.584 371.596 229.616 374.809C229.584 378.089 226.054 379.987 220.285 379.955C214.485 379.987 210.924 378.089 210.953 374.809C210.924 371.596 214.485 369.701 220.285 369.669ZM222.932 355.27C222.9 357.007 222.9 359.545 222.177 362.79L219.339 362.533C219.907 359.77 220 357.679 220.033 356.039H208.999V353.598H222.932V355.27ZM212.971 365.167V359.77H215.871V365.071C218.835 364.974 221.863 364.749 224.637 364.395L224.824 366.518C219.057 367.515 212.593 367.675 207.611 367.675L207.359 365.234C209.061 365.234 210.985 365.199 212.971 365.167Z" fill="#2C2E35"/>
<path d="M254.89 362.21V358.354H249.311C249.496 358.965 249.59 359.607 249.592 360.28C249.592 360.956 249.498 361.599 249.311 362.21H254.89ZM257.79 380.018H254.89V372.305H239.063V369.987H257.79V380.018ZM242.405 364.59C244.897 364.557 246.789 362.853 246.816 360.28C246.789 357.775 244.897 356.009 242.405 356.038C239.818 356.009 237.959 357.775 237.988 360.28C237.959 362.853 239.818 364.557 242.405 364.59ZM242.405 353.468C244.736 353.468 246.722 354.401 248.016 355.909H254.89V351.924H257.79V368.51H254.89V364.654H248.016C246.722 366.165 244.736 367.095 242.405 367.095C238.278 367.095 235.182 364.268 235.217 360.28C235.182 356.295 238.278 353.468 242.405 353.468Z" fill="#2C2E35"/>
<path d="M281.929 351.926H284.893V380.084H281.929V351.926ZM279.407 371.342L277.706 373.655C274.522 372.143 271.997 368.997 270.706 365.17C269.446 369.284 266.892 372.661 263.582 374.298L261.816 371.79C266.136 369.831 269.192 364.463 269.192 359.063V354.242H272.158V359.063C272.126 364.206 275.152 369.38 279.407 371.342Z" fill="#2C2E35"/>
<path d="M309.475 377.705C313.666 377.737 316.065 376.74 316.097 375.004C316.065 373.299 313.666 372.337 309.475 372.305C305.284 372.337 302.853 373.299 302.917 375.004C302.853 376.74 305.284 377.737 309.475 377.705ZM307.551 355.591H299.259V353.213H319.817V355.591H311.461C311.841 358.324 315.749 360.605 320.824 361.122L319.752 363.499C314.961 362.917 311.019 360.862 309.507 357.874C307.993 360.862 304.054 362.917 299.259 363.499L298.252 361.122C303.201 360.605 307.111 358.292 307.551 355.591ZM322.087 367.355H310.925V370.086C316.003 370.343 318.997 372.08 318.997 375.004C318.997 378.217 315.435 380.018 309.475 380.018C303.485 380.018 299.924 378.217 299.892 375.004C299.924 372.08 302.917 370.343 308.025 370.086V367.355H296.928V364.976H322.087" fill="#2C2E35"/>
<path d="M346.099 356.169C346.099 358.803 346.099 361.729 345.344 365.747H349.315V368.191H338.153V380.084H335.192V368.191H324.156V365.747H342.38C343.2 361.762 343.2 358.803 343.2 356.169V356.107H327.246V353.727H346.099" fill="#2C2E35"/>
<path d="M373.071 361.25H379.187V351.926H382.089V380.084H379.187V363.691H373.071V361.25ZM376.099 371.278L374.333 373.655C371.179 372.082 368.783 368.898 367.585 365.042C366.355 369.091 363.962 372.532 360.776 374.169L358.945 371.792C363.204 369.702 366.042 364.305 366.074 359.066V354.242H369.035V359.066C369.035 364.238 371.876 369.348 376.099 371.278Z" fill="#2C2E35"/>
<path d="M400.552 357.646H406.416V351.924H409.318V368.51H406.416V360.09H400.552V357.646ZM400.049 377.638C404.082 377.638 406.478 376.547 406.478 374.679C406.478 372.752 404.082 371.63 400.049 371.659C396.013 371.63 393.614 372.752 393.614 374.679C393.614 376.547 396.013 377.638 400.049 377.638ZM400.049 369.282C405.851 369.314 409.38 371.276 409.38 374.679C409.38 378.088 405.851 380.018 400.049 380.018C394.276 380.018 390.714 378.088 390.714 374.679C390.714 371.276 394.276 369.314 400.049 369.282ZM402.758 364.973L401.182 367.291C398.154 366.195 395.919 364.011 394.718 361.181C393.52 364.429 391.095 366.937 387.753 368.191L386.236 365.744C390.621 364.236 393.175 360.476 393.175 356.295V353.468H396.139V356.166C396.074 360.055 398.599 363.592 402.758 364.973Z" fill="#2C2E35"/>
<path d="M438.82 376.678H413.535V374.169H424.633V369.222H416.625V360.285H432.83V356.364H416.561V353.923H435.73V362.729H419.525V366.778H436.36V369.222H427.532V374.169H438.82" fill="#2C2E35"/>
<path d="M459.732 370.056V358.741H459.545L452.483 369.863V370.056H459.732ZM448.951 370.185L458.786 354.628H462.948V370.056H465.977V372.948H462.948V377.383H459.732V372.948H448.951" fill="#2C2E35"/>
<path d="M171.689 422.11H174.589V433.103H179.003V435.676H174.589V450.201H171.689V422.11ZM164.124 427.253H156.998V440.752H164.124V427.253ZM167.085 443.196H154.16V424.873H167.085V443.196Z" fill="#2C2E35"/>
<path d="M183.341 424.167H202.51V432.973H186.302V437.086H203.14V439.466H183.402V430.531H199.608V426.611H183.341V424.167ZM205.6 446.793H180.312V444.352H205.6V446.793Z" fill="#2C2E35"/>
<path d="M226.903 426.738H213.284V435.416H226.903V426.738ZM232.831 446.73H207.549V444.225H218.644V437.731H210.448V424.361H229.805V437.731H221.543V444.225H232.831" fill="#2C2E35"/>
<path d="M256.462 433.232H262.577V422.11H265.48V450.201H262.577V435.74H256.462V433.232ZM244.04 445.702L242.4 443.451C247.256 440.945 250.252 437.925 251.925 434.355L243.03 435.223L242.529 432.651L252.836 431.946C253.281 430.499 253.53 428.987 253.624 427.379H243.979V424.938H256.523C256.523 433.264 253.876 440.623 244.04 445.702Z" fill="#2C2E35"/>
<path d="M292.644 450.201H289.68V422.11H292.644V450.201ZM280.348 440.688V427.446H276.122V440.848C277.51 440.816 278.928 440.752 280.348 440.688ZM273.287 440.913V427.446H270.387V425.005H286.086V427.446H283.186V440.527C284.636 440.398 286.054 440.27 287.41 440.111L287.6 442.36C281.608 443.292 275.05 443.386 269.945 443.453L269.629 440.945" fill="#2C2E35"/>
<path d="M310.795 423.976H313.82C311.644 426.932 309.972 432.876 309.972 438.115C309.972 443.422 311.644 449.368 313.82 452.324H310.795C308.021 448.339 306.568 443.708 306.568 438.115C306.568 432.589 308.021 427.929 310.795 423.976Z" fill="#2C2E35"/>
<path d="M321.258 424.811L328.384 442.424H328.635L335.7 424.811H339.797V447.566H336.581V431.176H336.391L329.833 447.502H327.121L320.564 431.112H320.376V447.566H317.16V424.811" fill="#2C2E35"/>
<path d="M349.617 445.253C352.329 445.253 353.937 443.452 353.908 441.396V439.853L349.998 440.11C347.854 440.271 346.498 441.104 346.466 442.808C346.498 444.416 347.822 445.253 349.617 445.253ZM349.491 437.666C350.628 437.572 353.182 437.441 353.908 437.408V436.058C353.908 434.131 352.772 433.008 350.502 432.973C348.578 433.008 347.412 433.906 347.096 435.157H343.818C344.1 432.362 346.686 430.307 350.628 430.275C353.308 430.307 357.185 431.304 357.185 436.253V447.565H353.97V445.253H353.844C353.246 446.507 351.697 447.951 348.923 447.951C345.74 447.951 343.282 446.089 343.25 442.744C343.282 438.888 346.53 437.859 349.491 437.666Z" fill="#2C2E35"/>
<path d="M361.15 430.529H364.305V433.23H364.492C365.093 431.397 366.792 430.272 368.716 430.272C369.128 430.272 369.79 430.304 370.104 430.336V433.549C369.852 433.456 369.096 433.324 368.402 433.359C366.13 433.324 364.431 434.964 364.431 437.151V447.562H361.15" fill="#2C2E35"/>
<path d="M372.559 430.529H375.713V433.292H375.9C376.595 431.397 378.264 430.304 380.44 430.272C382.678 430.304 384.224 431.43 384.98 433.292H385.109C385.926 431.462 387.724 430.304 390.149 430.272C393.178 430.304 395.322 432.233 395.322 436.122V447.562H392.044V436.444C392.044 434.16 390.624 433.196 388.89 433.163C386.778 433.196 385.548 434.643 385.548 436.701V447.562H382.332V436.251C382.3 434.418 381.04 433.196 379.242 433.163C377.415 433.196 375.839 434.771 375.839 437.084V447.562H372.559" fill="#2C2E35"/>
<path d="M406.349 445.125C409.377 445.125 410.827 442.36 410.827 439.147C410.827 435.869 409.377 433.071 406.349 433.103C403.291 433.071 401.841 435.869 401.811 439.147C401.841 442.36 403.291 445.125 406.349 445.125ZM398.531 439.147C398.531 433.811 401.618 430.308 406.349 430.276C411.046 430.308 414.136 433.811 414.168 439.147C414.136 444.386 411.046 447.921 406.349 447.888C401.618 447.921 398.531 444.386 398.531 439.147Z" fill="#2C2E35"/>
<path d="M424.307 439.144C424.307 433.905 427.364 430.306 432.062 430.273C435.876 430.306 438.652 432.589 438.998 436.059H435.782C435.434 434.451 434.206 433.101 432.124 433.101C429.412 433.101 427.616 435.384 427.587 439.015C427.616 442.746 429.382 445.058 432.124 445.058C433.984 445.058 435.372 444 435.782 442.167H438.998C438.652 445.477 436.066 447.918 432.124 447.888C427.238 447.918 424.307 444.254 424.307 439.144Z" fill="#2C2E35"/>
<path d="M449.211 445.125C452.236 445.125 453.686 442.36 453.686 439.147C453.686 435.869 452.236 433.071 449.211 433.103C446.15 433.071 444.7 435.869 444.671 439.147C444.7 442.36 446.15 445.125 449.211 445.125ZM441.391 439.147C441.391 433.811 444.478 430.308 449.211 430.276C453.906 430.308 456.996 433.811 457.028 439.147C456.996 444.386 453.906 447.921 449.211 447.888C444.478 447.921 441.391 444.386 441.391 439.147Z" fill="#2C2E35"/>
<path d="M468.176 433.167H464.58V447.566H461.305V433.167H458.719V430.533H461.305V428.536C461.305 425.519 463.194 423.782 466.284 423.782C467.072 423.782 467.892 423.879 468.49 423.975V426.803C467.922 426.674 467.45 426.674 467.104 426.674C465.402 426.674 464.58 427.381 464.58 429.054V430.533H468.176" fill="#2C2E35"/>
<path d="M479.153 433.167H475.556V447.566H472.281V433.167H469.695V430.533H472.281V428.536C472.281 425.519 474.171 423.782 477.261 423.782C478.049 423.782 478.869 423.879 479.466 423.975V426.802C478.898 426.674 478.426 426.674 478.081 426.674C476.379 426.674 475.556 427.381 475.556 429.054V430.533H479.153" fill="#2C2E35"/>
<path d="M492.668 437.538C492.668 434.968 491.027 433.039 488.503 433.039C485.89 433.039 484.186 435.129 484.028 437.538H492.668ZM480.75 439.146C480.75 433.907 483.805 430.308 488.441 430.276C492.287 430.308 495.913 432.717 495.881 438.889V440.047H484.028C484.092 443.324 485.952 445.157 488.758 445.125C490.585 445.157 491.815 444.321 492.351 443.26H495.693C494.937 446.058 492.383 447.92 488.696 447.888C483.776 447.92 480.75 444.45 480.75 439.146Z" fill="#2C2E35"/>
<path d="M510.316 437.538C510.316 434.968 508.676 433.039 506.151 433.039C503.538 433.039 501.834 435.129 501.676 437.538H510.316ZM498.398 439.146C498.398 433.907 501.454 430.308 506.09 430.276C509.935 430.308 513.561 432.717 513.529 438.889V440.047H501.676C501.74 443.324 503.6 445.157 506.406 445.125C508.234 445.157 509.464 444.321 510 443.26H513.342C512.586 446.058 510.032 447.92 506.344 447.888C501.424 447.92 498.398 444.45 498.398 439.146Z" fill="#2C2E35"/>
<path d="M518.887 452.324H515.861C518.037 449.366 519.707 443.422 519.707 438.182C519.707 432.876 518.037 426.93 515.861 423.976H518.887C521.661 427.959 523.11 432.589 523.11 438.182C523.11 443.708 521.661 448.369 518.887 452.324Z" fill="#2C2E35"/>
<path d="M16.639 432.222H4.82338V436.668H16.639V432.222ZM2.82957 426.225H4.82338V430.563H16.639V426.225H18.6329V438.332H2.82957V426.225ZM21.2056 444.705H0.361328V442.99H21.2056V444.705Z" fill="#2C2E35"/>
<path d="M42.374 441.865H40.4846V433.238H37.2822V441.168H35.3928V424.989H37.2822V431.526H40.4846V424.561H42.374V441.865ZM27.463 440.31H29.4595V445.56H43.1083V447.275H27.463V440.31ZM24.0488 426.544H32.662V433.187H26.0454V436.722C29.0361 436.692 31.3221 436.561 34.0261 436.025L34.2351 437.684C31.2953 438.247 28.8807 438.381 25.571 438.381H24.1024V431.579H30.7164V428.203H24.0488" fill="#2C2E35"/>
<path d="M64.1261 437.418H48.3736V426.704H63.917V428.419H50.3701V435.703H64.1261V437.418ZM45.75 442.883H66.5942V444.598H45.75V442.883Z" fill="#2C2E35"/>
<path d="M85.2877 430.024H79.9333V432.915H85.2877V430.024ZM79.7243 446.095C83.2162 446.122 85.3923 445.077 85.3923 443.415C85.3923 441.622 83.2162 440.604 79.7243 440.574C76.2565 440.604 74.0804 441.622 74.1072 443.415C74.0804 445.077 76.2565 446.122 79.7243 446.095ZM79.7243 438.969C84.4758 438.999 87.3915 440.604 87.3915 443.415C87.3915 446.173 84.4758 447.727 79.7243 447.754C74.9996 447.727 72.0839 446.173 72.1107 443.415C72.0839 440.604 74.9996 438.999 79.7243 438.969ZM77.9904 427.987H71.481V434.952H77.9904V427.987ZM87.287 438.329H85.2877V434.63H79.9333V436.614H69.4844V426.328H79.9333V428.309H85.2877V424.559H87.287" fill="#2C2E35"/>
<path d="M154.098 511.833H157.378C157.565 513.76 159.364 515.172 161.663 515.172C164.343 515.172 166.267 513.184 166.267 510.482C166.267 507.687 164.281 505.693 161.475 505.661C159.677 505.661 158.321 506.275 157.565 507.655H154.35L155.802 494.99H168.411V498.01H158.637L157.882 504.31H158.069C159.015 503.442 160.562 502.799 162.295 502.831C166.455 502.799 169.577 505.98 169.547 510.351C169.577 514.853 166.267 518.066 161.663 518.066C157.407 518.066 154.224 515.435 154.098 511.833Z" fill="#2C2E35"/>
<path d="M180.887 515.108C183.916 515.076 185.714 512.055 185.682 506.366C185.714 500.741 183.883 497.627 180.887 497.627C177.926 497.627 176.096 500.741 176.096 506.366C176.096 512.055 177.894 515.076 180.887 515.108ZM172.689 506.366C172.722 499.007 175.782 494.7 180.887 494.73C186.027 494.7 189.088 499.007 189.088 506.366C189.088 513.824 186.059 518.066 180.887 518.066C175.75 518.066 172.722 513.824 172.689 506.366Z" fill="#2C2E35"/>
<path d="M192.607 500.712H195.762V503.475H195.949C196.643 501.58 198.313 500.487 200.489 500.455C202.727 500.487 204.273 501.612 205.029 503.475H205.157C205.975 501.645 207.773 500.487 210.198 500.455C213.227 500.487 215.37 502.419 215.37 506.308V517.748H212.093V506.626C212.093 504.343 210.673 503.381 208.939 503.349C206.827 503.381 205.597 504.826 205.597 506.884V517.748H202.381V506.434C202.349 504.6 201.089 503.381 199.291 503.349C197.463 503.381 195.888 504.957 195.888 507.27V517.748H192.607" fill="#2C2E35"/>
<path d="M252.867 515.24L260.623 507.267C263.051 504.697 264.281 503.247 264.281 501.291C264.281 499.04 262.483 497.595 260.119 497.627C257.659 497.595 256.083 499.203 256.083 501.61H252.867C252.867 497.464 255.954 494.701 260.245 494.733C264.501 494.701 267.497 497.464 267.497 501.159C267.497 503.697 266.299 505.723 262.137 509.901L257.597 514.596V514.789H267.875V517.748H252.867" fill="#2C2E35"/>
<path d="M271.646 511.833H274.927C275.114 513.76 276.912 515.172 279.212 515.172C281.892 515.172 283.816 513.184 283.816 510.482C283.816 507.687 281.83 505.693 279.024 505.661C277.226 505.661 275.87 506.275 275.114 507.655H271.898L273.351 494.99H285.96V498.01H276.186L275.43 504.31H275.618C276.564 503.442 278.11 502.799 279.844 502.831C284.003 502.799 287.126 505.98 287.096 510.351C287.126 514.853 283.816 518.066 279.212 518.066C274.956 518.066 271.772 515.435 271.646 511.833Z" fill="#2C2E35"/>
<path d="M298.439 515.108C301.464 515.076 303.265 512.055 303.23 506.366C303.265 500.741 301.432 497.627 298.439 497.627C295.477 497.627 293.644 500.741 293.644 506.366C293.644 512.055 295.445 515.076 298.439 515.108ZM290.238 506.366C290.27 499.007 293.331 494.7 298.439 494.73C303.579 494.7 306.639 499.007 306.639 506.366C306.639 513.824 303.611 518.066 298.439 518.066C293.299 518.066 290.27 513.824 290.238 506.366Z" fill="#2C2E35"/>
<path d="M310.156 500.712H313.31V503.475H313.498C314.192 501.58 315.862 500.487 318.038 500.455C320.276 500.487 321.822 501.612 322.578 503.475H322.706C323.524 501.645 325.322 500.487 327.747 500.455C330.775 500.487 332.919 502.419 332.919 506.308V517.748H329.642V506.626C329.642 504.343 328.221 503.381 326.488 503.349C324.376 503.381 323.146 504.826 323.146 506.884V517.748H319.93V506.434C319.898 504.6 318.638 503.381 316.84 503.349C315.012 503.381 313.436 504.957 313.436 507.27V517.748H310.156" fill="#2C2E35"/>
<path d="M353.207 521.156H350.246L357.431 493.966H360.398" fill="#2C2E35"/>
<path d="M234.221 521.156H231.26L238.445 493.966H241.411" fill="#2C2E35"/>
<path d="M370.289 511.833H373.757C373.883 513.789 375.807 515.078 378.297 515.11C381.009 515.078 382.962 513.564 382.962 511.383C382.962 509.132 381.135 507.526 377.919 507.526H376.027V504.699H377.919C380.473 504.699 382.271 503.249 382.271 501.097C382.271 499.01 380.725 497.597 378.361 497.627C376.121 497.597 374.135 498.878 374.07 500.904H370.79C370.889 497.209 374.231 494.7 378.423 494.733C382.772 494.7 385.546 497.528 385.546 500.904C385.546 503.474 383.97 505.337 381.574 505.918V506.111C384.602 506.529 386.401 508.62 386.368 511.509C386.401 515.303 382.962 518.066 378.361 518.066C373.725 518.066 370.447 515.529 370.289 511.833Z" fill="#2C2E35"/>
<path d="M390.146 511.833H393.427C393.614 513.76 395.412 515.172 397.712 515.172C400.392 515.172 402.316 513.184 402.316 510.482C402.316 507.687 400.33 505.693 397.524 505.661C395.726 505.661 394.37 506.275 393.614 507.655H390.398L391.851 494.99H404.46V498.01H394.686L393.93 504.31H394.118C395.064 503.442 396.61 502.799 398.344 502.831C402.503 502.799 405.626 505.98 405.596 510.351C405.626 514.853 402.316 518.066 397.712 518.066C393.456 518.066 390.272 515.435 390.146 511.833Z" fill="#2C2E35"/>
<path d="M416.936 515.108C419.964 515.076 421.763 512.055 421.73 506.366C421.763 500.741 419.932 497.627 416.936 497.627C413.975 497.627 412.144 500.741 412.144 506.366C412.144 512.055 413.943 515.076 416.936 515.108ZM408.738 506.366C408.77 499.007 411.831 494.7 416.936 494.73C422.076 494.7 425.137 499.007 425.137 506.366C425.137 513.824 422.108 518.066 416.936 518.066C411.799 518.066 408.77 513.824 408.738 506.366Z" fill="#2C2E35"/>
<path d="M428.656 500.712H431.81V503.475H431.998C432.692 501.58 434.362 500.487 436.538 500.455C438.776 500.487 440.322 501.612 441.078 503.475H441.206C442.024 501.645 443.822 500.487 446.247 500.455C449.275 500.487 451.419 502.419 451.419 506.308V517.748H448.142V506.626C448.142 504.343 446.721 503.381 444.988 503.349C442.876 503.381 441.646 504.826 441.646 506.884V517.748H438.43V506.434C438.398 504.6 437.138 503.381 435.34 503.349C433.512 503.381 431.936 504.957 431.936 507.27V517.748H428.656" fill="#2C2E35"/>
<path d="M455.378 517.748H458.658V494.99H455.378V517.748ZM19.787 517.692H17.8976V494.441H19.787V517.692ZM9.44525 502.797H13.3311V494.977H15.2204V516.459H13.3311V504.512H9.44525V502.797ZM5.08771 501.031V498.887H0.673913V497.174H11.1764V498.887H7.02796V501.031C7.02796 505.075 8.8128 509.095 11.9644 510.941L10.7021 512.442C8.47243 511.102 6.89667 508.61 6.08466 505.638C5.26997 508.824 3.61645 511.557 1.3573 513.031L0.046875 511.477C3.24935 509.548 5.08771 505.289 5.08771 501.031ZM36.2818 496.85H30.5066V501.781H36.2818V496.85ZM39.2725 511.745H27.5667V515.655H39.2725V511.745ZM24.9913 495.191H41.7943V496.85H38.3291V501.781H41.7407V503.496H25.0449V501.781H28.5127V496.85H24.9913V495.191ZM43.7908 507.35H34.3924V510.083H41.2717V517.37H25.5702V510.083H32.3959V507.35H23.0511V505.691H43.7908" fill="#2C2E35"/>
<path d="M63.7538 497.976C63.7538 500.147 63.7538 502.586 63.0972 505.906H66.4846V507.621H57.0862V517.689H55.0361V507.621H45.7422V505.906H61.0471C61.7573 502.586 61.7573 500.147 61.7573 497.976V497.655H48.3149V495.939H63.7538" fill="#2C2E35"/>
<path d="M80.1978 499.426H85.2896V494.444H87.2888V508.211H85.2896V501.085H80.1978V499.426ZM79.7261 515.98C83.218 515.98 85.3941 514.961 85.3941 513.3C85.3941 511.534 83.218 510.489 79.7261 510.516C76.2583 510.489 74.0822 511.534 74.109 513.3C74.0822 514.961 76.2583 515.98 79.7261 515.98ZM79.7261 508.854C84.4776 508.881 87.3933 510.489 87.3933 513.3C87.3933 516.058 84.4776 517.612 79.7261 517.639C75.0014 517.612 72.0857 516.058 72.1125 513.3C72.0857 510.489 75.0014 508.881 79.7261 508.854ZM81.929 505.48L80.7766 507.085C78.2548 506.12 76.2851 504.22 75.2882 501.784C74.3181 504.569 72.2438 506.74 69.4862 507.782L68.3848 506.12C71.9008 504.861 74.2377 501.755 74.2645 498.142V495.784H76.2583V498.086C76.2342 501.407 78.5443 504.328 81.929 505.48Z" fill="#2C2E35"/>
<path d="M19.1585 653.108H17.1646V636.125H19.1585V653.108ZM4.45655 651.392H6.45036V657.125H19.8928V658.84H4.45655V651.392ZM6.87384 647.375C9.1062 647.375 10.8642 645.77 10.8642 643.465C10.8642 641.19 9.1062 639.553 6.87384 639.553C4.53697 639.553 2.82987 641.19 2.82987 643.465C2.82987 645.77 4.53697 647.375 6.87384 647.375ZM6.87384 637.733C10.2586 637.762 12.8071 640.091 12.8071 643.465C12.8071 646.839 10.2586 649.198 6.87384 649.144C3.43285 649.198 0.860127 646.839 0.886926 643.465C0.860127 640.091 3.43285 637.762 6.87384 637.733Z" fill="#2C2E35"/>
<path d="M42.8499 647.807L41.9012 649.524C38.4602 648.718 34.8638 646.228 33.3684 642.851C31.8757 646.228 28.2766 648.718 24.8356 649.524L23.8923 647.807C27.8558 647.032 32.267 643.521 32.2937 639.558V637.735H34.3948V639.558C34.3948 643.521 38.8568 647.059 42.8499 647.807ZM23.0508 654.504H43.895V656.219H23.0508V654.504Z" fill="#2C2E35"/>
<path d="M61.3435 636.128H63.3909V645.451H67.1723V647.218H63.3909V659.379H61.3435V636.128ZM57.404 639.934H48.7426V644.755H56.9324V646.414H48.7426V652.039C52.8643 652.065 55.7238 651.905 59.1379 651.288L59.3979 653.003C55.8283 653.617 52.8375 653.724 48.5309 653.754H46.7461V638.218H57.404" fill="#2C2E35"/>
<path d="M86.3948 640.895C86.3948 643.843 86.3948 647.164 85.5586 652.199L83.5085 651.985C84.4009 647.244 84.4009 643.76 84.4009 640.895V640.306H70.6986V638.593H86.3948V640.895ZM68.4395 654.236H89.1792V655.951H68.4395V654.236Z" fill="#2C2E35"/>
<path d="M110.452 650.004H108.563V643.736H105.36V649.682H103.471V636.556H105.36V642.021H108.563V636.127H110.452V650.004ZM108.509 652.737H97.3796V657.347H108.509V652.737ZM95.383 651.073H110.452V659.057H95.383V651.073ZM92.127 637.628H100.74V643.95H94.1235V647.324C97.1142 647.297 99.4002 647.163 102.104 646.627L102.313 648.289C99.3734 648.852 96.9588 648.959 93.6491 648.932H92.1806V642.396H98.7945V639.341H92.127" fill="#2C2E35"/>
<path d="M154.098 642.097H157.252V644.86H157.439C158.134 642.966 159.803 641.872 161.979 641.84C164.217 641.872 165.763 642.998 166.519 644.86H166.648C167.465 643.03 169.263 641.872 171.689 641.84C174.717 641.872 176.861 643.802 176.861 647.69V659.131H173.583V648.012C173.583 645.729 172.163 644.764 170.429 644.732C168.317 644.764 167.087 646.211 167.087 648.269V659.131H163.871V647.819C163.839 645.986 162.58 644.764 160.781 644.732C158.954 644.764 157.378 646.34 157.378 648.652V659.131H154.098" fill="#2C2E35"/>
<path d="M186.373 656.817C189.085 656.817 190.693 655.016 190.664 652.961V651.417L186.754 651.674C184.61 651.835 183.254 652.668 183.222 654.373C183.254 655.981 184.578 656.817 186.373 656.817ZM186.247 649.23C187.384 649.136 189.938 649.005 190.664 648.973V647.622C190.664 645.695 189.528 644.573 187.258 644.538C185.333 644.573 184.168 645.47 183.852 646.722H180.574C180.855 643.927 183.441 641.871 187.384 641.839C190.064 641.871 193.941 642.868 193.941 647.818V659.13H190.725V656.817H190.599C190.002 658.071 188.453 659.516 185.679 659.516C182.495 659.516 180.038 657.653 180.006 654.309C180.038 650.452 183.286 649.423 186.247 649.23Z" fill="#2C2E35"/>
<path d="M197.908 642.097H201.062V644.799H201.25C201.85 642.966 203.549 641.84 205.474 641.84C205.886 641.84 206.548 641.872 206.862 641.904V645.118C206.61 645.024 205.854 644.893 205.16 644.927C202.887 644.893 201.188 646.533 201.188 648.719V659.131H197.908" fill="#2C2E35"/>
<path d="M209.314 642.097H212.469V644.86H212.656C213.35 642.966 215.02 641.872 217.196 641.84C219.434 641.872 220.98 642.998 221.736 644.86H221.864C222.682 643.03 224.48 641.872 226.905 641.84C229.934 641.872 232.078 643.802 232.078 647.69V659.131H228.8V648.012C228.8 645.729 227.38 644.764 225.646 644.732C223.534 644.764 222.304 646.211 222.304 648.269V659.131H219.088V647.819C219.056 645.986 217.796 644.764 215.998 644.732C214.17 644.764 212.595 646.34 212.595 648.652V659.131H209.314" fill="#2C2E35"/>
<path d="M243.099 656.69C246.125 656.69 247.575 653.924 247.575 650.711C247.575 647.434 246.125 644.636 243.099 644.668C240.039 644.636 238.589 647.434 238.559 650.711C238.589 653.924 240.039 656.69 243.099 656.69ZM235.279 650.711C235.279 645.375 238.367 641.873 243.099 641.841C247.794 641.873 250.884 645.375 250.917 650.711C250.884 655.95 247.794 659.485 243.099 659.453C238.367 659.485 235.279 655.95 235.279 650.711Z" fill="#2C2E35"/>
<path d="M253.369 650.712C253.369 645.473 256.427 641.874 261.125 641.842C264.938 641.874 267.715 644.157 268.06 647.628H264.844C264.496 646.02 263.269 644.669 261.186 644.669C258.474 644.669 256.679 646.952 256.649 650.584C256.679 654.314 258.445 656.627 261.186 656.627C263.046 656.627 264.434 655.568 264.844 653.735H268.06C267.715 657.045 265.129 659.486 261.186 659.457C256.301 659.486 253.369 655.823 253.369 650.712Z" fill="#2C2E35"/>
<path d="M278.27 656.69C281.299 656.69 282.748 653.924 282.748 650.711C282.748 647.434 281.299 644.636 278.27 644.668C275.213 644.636 273.763 647.434 273.733 650.711C273.763 653.924 275.213 656.69 278.27 656.69ZM270.453 650.711C270.453 645.375 273.54 641.873 278.27 641.841C282.968 641.873 286.058 645.375 286.09 650.711C286.058 655.95 282.968 659.485 278.27 659.453C273.54 659.485 270.453 655.95 270.453 650.711Z" fill="#2C2E35"/>
<path d="M297.246 644.732H293.65V659.131H290.375V644.732H287.789V642.097H290.375V640.101C290.375 637.083 292.264 635.347 295.354 635.347C296.142 635.347 296.962 635.443 297.56 635.54V638.367C296.992 638.238 296.52 638.238 296.174 638.238C294.473 638.238 293.65 638.946 293.65 640.618V642.097H297.246" fill="#2C2E35"/>
<path d="M308.207 644.732H304.611V659.131H301.336V644.732H298.75V642.097H301.336V640.101C301.336 637.083 303.225 635.347 306.315 635.347C307.103 635.347 307.923 635.443 308.521 635.54V638.367C307.953 638.238 307.481 638.238 307.135 638.238C305.434 638.238 304.611 638.946 304.611 640.618V642.097H308.207" fill="#2C2E35"/>
<path d="M321.73 649.103C321.73 646.533 320.09 644.603 317.565 644.603C314.953 644.603 313.248 646.694 313.09 649.103H321.73ZM309.812 650.711C309.812 645.472 312.868 641.873 317.504 641.84C321.349 641.873 324.975 644.282 324.943 650.454V651.611H313.09C313.154 654.889 315.014 656.722 317.82 656.69C319.648 656.722 320.878 655.886 321.414 654.825H324.756C324 657.622 321.446 659.485 317.758 659.453C312.838 659.485 309.812 656.014 309.812 650.711Z" fill="#2C2E35"/>
<path d="M339.378 649.103C339.378 646.533 337.738 644.603 335.214 644.603C332.601 644.603 330.897 646.694 330.738 649.103H339.378ZM327.461 650.711C327.461 645.472 330.516 641.873 335.152 641.84C338.998 641.873 342.624 644.282 342.592 650.454V651.611H330.738C330.803 654.889 332.663 656.722 335.468 656.69C337.299 656.722 338.526 655.886 339.062 654.825H342.404C341.648 657.622 339.094 659.485 335.407 659.453C330.487 659.485 327.461 656.014 327.461 650.711Z" fill="#2C2E35"/>
<path d="M171.689 703.857H174.589V714.85H179.003V717.422H174.589V731.947H171.689V703.857ZM164.124 709.002H156.998V722.501H164.124V709.002ZM167.085 724.945H154.16V706.62H167.085V724.945Z" fill="#2C2E35"/>
<path d="M183.341 705.911H202.51V714.72H186.302V718.833H203.14V721.21H183.402V712.275H199.608V708.355H183.341V705.911ZM205.6 728.537H180.312V726.098H205.6V728.537Z" fill="#2C2E35"/>
<path d="M226.903 708.483H213.284V717.161H226.903V708.483ZM232.831 728.473H207.549V725.967H218.644V719.476H210.448V706.101H229.805V719.476H221.543V725.967H232.831" fill="#2C2E35"/>
<path d="M248.776 714.978H254.892V703.857H257.794V731.947H254.892V717.487H248.776V714.978ZM236.355 727.45L234.715 725.199C239.571 722.694 242.567 719.673 244.239 716.104L235.345 716.972L234.843 714.397L245.15 713.692C245.595 712.245 245.844 710.733 245.938 709.125H236.293V706.687H248.838C248.838 715.01 246.19 722.369 236.355 727.45Z" fill="#2C2E35"/>
<path d="M284.959 731.947H281.995V703.857H284.959V731.947ZM272.661 722.436V709.195H268.437V722.594C269.826 722.562 271.243 722.501 272.661 722.436ZM265.602 722.661V709.195H262.702V706.751H278.401V709.195H275.502V722.275C276.952 722.144 278.369 722.018 279.725 721.855L279.913 724.106C273.923 725.038 267.365 725.132 262.26 725.199L261.941 722.694" fill="#2C2E35"/>
<path d="M156.051 764.154H153.594V747.07H156.003V753.44H156.193C156.761 752.063 157.919 751.2 159.881 751.173C162.459 751.2 164.182 752.813 164.182 755.999V764.154H161.725V756.334C161.7 754.456 160.706 753.368 159.029 753.346C157.305 753.368 156.051 754.528 156.051 756.576" fill="#2C2E35"/>
<path d="M173.019 753.342H170.465V760.39C170.441 761.835 171.151 762.076 171.931 762.076C172.309 762.103 172.853 762.052 173.161 762.028V764.201C172.853 764.271 172.333 764.322 171.647 764.346C169.71 764.322 167.984 763.236 168.008 760.918V753.342H166.164V751.367H168.008V748.277H170.465V751.367H173.019" fill="#2C2E35"/>
<path d="M181.295 753.342H178.741V760.39C178.717 761.835 179.427 762.076 180.207 762.076C180.584 762.103 181.128 762.052 181.437 762.028V764.201C181.128 764.271 180.609 764.322 179.923 764.346C177.985 764.322 176.259 763.236 176.283 760.918V753.342H174.439V751.367H176.283V748.277H178.741V751.367H181.295" fill="#2C2E35"/>
<path d="M189.376 762.271C191.552 762.271 192.664 760.317 192.685 757.739C192.664 755.223 191.573 753.317 189.376 753.344C187.251 753.317 186.114 755.083 186.114 757.739C186.114 760.435 187.275 762.271 189.376 762.271ZM183.705 751.369H186.114V753.441H186.305C186.731 752.618 187.58 751.2 189.896 751.173C192.921 751.2 195.167 753.631 195.143 757.785C195.167 761.909 192.969 764.396 189.944 764.396C187.65 764.396 186.752 762.994 186.305 762.177H186.163V768.928H183.705" fill="#2C2E35"/>
<path d="M202.236 753.15C200.839 753.172 199.848 753.919 199.826 754.887C199.848 755.637 200.44 756.192 201.812 756.527L203.795 756.961C206.111 757.516 207.223 758.652 207.247 760.437C207.223 762.75 205.307 764.414 202.093 764.392C199.092 764.414 197.321 763.042 196.988 760.678H199.542C199.755 761.811 200.605 762.39 202.093 762.415C203.677 762.388 204.717 761.712 204.693 760.63C204.717 759.807 204.103 759.279 202.755 758.987L200.818 758.553C198.572 758.022 197.39 756.792 197.369 755.029C197.39 752.762 199.328 751.197 202.236 751.172C205.025 751.197 206.773 752.644 207.008 754.841H204.645C204.412 753.825 203.608 753.172 202.236 753.15Z" fill="#2C2E35"/>
<path d="M209.613 762.653C209.613 761.71 210.369 760.962 211.267 760.962C212.14 760.962 212.899 761.71 212.875 762.653C212.899 763.569 212.14 764.317 211.267 764.29C210.369 764.317 209.613 763.569 209.613 762.653ZM211.267 751.652C212.14 751.652 212.899 752.4 212.875 753.34C212.899 754.257 212.14 755.004 211.267 754.98C210.369 755.004 209.613 754.257 209.613 753.34C209.613 752.4 210.369 751.652 211.267 751.652Z" fill="#2C2E35"/>
<path d="M216.892 766.705H214.67L220.062 746.298H222.281" fill="#2C2E35"/>
<path d="M225.065 766.705H222.844L228.233 746.298H230.455" fill="#2C2E35"/>
<path d="M236.884 753.15C235.488 753.172 234.496 753.919 234.475 754.887C234.496 755.637 235.088 756.192 236.461 756.527L238.444 756.961C240.759 757.516 241.871 758.652 241.895 760.437C241.871 762.75 239.955 764.414 236.742 764.392C233.74 764.414 231.969 763.042 231.637 760.678H234.191C234.403 761.811 235.254 762.39 236.742 762.415C238.326 762.388 239.366 761.712 239.341 760.63C239.366 759.807 238.752 759.279 237.404 758.987L235.466 758.553C233.221 758.022 232.039 756.792 232.017 755.029C232.039 752.762 233.976 751.197 236.884 751.172C239.674 751.197 241.421 752.644 241.657 754.841H239.293C239.06 753.825 238.256 753.172 236.884 753.15Z" fill="#2C2E35"/>
<path d="M244.309 751.365H246.672V753.436H246.814C247.334 752.013 248.588 751.198 250.218 751.172C251.895 751.198 253.056 752.04 253.621 753.436H253.715C254.329 752.061 255.677 751.198 257.496 751.172C259.766 751.198 261.374 752.643 261.374 755.561V764.15H258.914V755.803C258.914 754.093 257.853 753.364 256.55 753.342C254.969 753.364 254.047 754.452 254.047 755.998V764.15H251.635V755.658C251.614 754.286 250.665 753.364 249.32 753.342C247.948 753.364 246.766 754.546 246.766 756.285V764.15H244.309" fill="#2C2E35"/>
<path d="M268.513 762.413C270.547 762.413 271.753 761.063 271.729 759.519V758.356L268.797 758.552C267.192 758.672 266.174 759.299 266.149 760.58C266.174 761.786 267.168 762.413 268.513 762.413ZM268.419 756.719C269.272 756.646 271.185 756.55 271.729 756.526V755.515C271.729 754.066 270.879 753.221 269.175 753.197C267.733 753.221 266.86 753.897 266.624 754.84H264.166C264.378 752.742 266.318 751.195 269.272 751.171C271.279 751.195 274.186 751.94 274.186 755.657V764.15H271.777V762.413H271.683C271.233 763.357 270.076 764.439 267.996 764.439C265.608 764.439 263.764 763.041 263.74 760.529C263.764 757.635 266.198 756.866 268.419 756.719Z" fill="#2C2E35"/>
<path d="M277.166 751.365H279.53V753.391H279.672C280.122 752.013 281.398 751.172 282.839 751.172C283.145 751.172 283.643 751.198 283.879 751.217V753.632C283.692 753.557 283.123 753.463 282.601 753.484C280.902 753.463 279.623 754.693 279.623 756.333V764.15H277.166" fill="#2C2E35"/>
<path d="M292.312 753.342H289.758V760.39C289.734 761.835 290.444 762.076 291.224 762.076C291.602 762.103 292.146 762.052 292.454 762.028V764.201C292.146 764.271 291.626 764.322 290.94 764.346C289.003 764.322 287.277 763.236 287.301 760.918V753.342H285.457V751.367H287.301V748.277H289.758V751.367H292.312" fill="#2C2E35"/>
<path d="M299.144 753.15C297.747 753.172 296.756 753.919 296.734 754.887C296.756 755.637 297.348 756.192 298.72 756.527L300.703 756.961C303.019 757.516 304.131 758.652 304.155 760.437C304.131 762.75 302.215 764.414 299.002 764.392C296 764.414 294.229 763.042 293.896 760.678H296.45C296.663 761.811 297.513 762.39 299.002 762.415C300.586 762.388 301.625 761.712 301.601 760.63C301.625 759.807 301.012 759.279 299.664 758.987L297.726 758.553C295.48 758.022 294.298 756.792 294.277 755.029C294.298 752.762 296.236 751.197 299.144 751.172C301.933 751.197 303.681 752.644 303.917 754.841H301.553C301.32 753.825 300.516 753.172 299.144 753.15Z" fill="#2C2E35"/>
<path d="M312.427 753.342H309.874V760.39C309.849 761.835 310.56 762.076 311.339 762.076C311.717 762.103 312.261 762.052 312.569 762.028V764.201C312.261 764.271 311.741 764.322 311.055 764.346C309.118 764.322 307.392 763.236 307.416 760.918V753.342H305.572V751.367H307.416V748.277H309.874V751.367H312.427" fill="#2C2E35"/>
<path d="M319.995 762.316C322.262 762.316 323.348 760.244 323.348 757.829C323.348 755.369 322.262 753.271 319.995 753.298C317.704 753.271 316.613 755.369 316.586 757.829C316.613 760.244 317.704 762.316 319.995 762.316ZM314.129 757.829C314.129 753.826 316.447 751.199 319.995 751.173C323.517 751.199 325.832 753.826 325.859 757.829C325.832 761.761 323.517 764.414 319.995 764.392C316.447 764.414 314.129 761.761 314.129 757.829Z" fill="#2C2E35"/>
<path d="M328.262 751.365H330.625V753.391H330.767C331.218 752.013 332.493 751.172 333.935 751.172C334.241 751.172 334.739 751.198 334.975 751.217V753.632C334.787 753.557 334.219 753.463 333.697 753.484C331.997 753.463 330.719 754.693 330.719 756.333V764.15H328.262" fill="#2C2E35"/>
<path d="M344.78 756.626C344.78 754.694 343.55 753.244 341.661 753.244C339.699 753.244 338.424 754.814 338.303 756.626H344.78ZM335.846 757.829C335.846 753.898 338.137 751.199 341.613 751.172C344.499 751.199 347.214 753.003 347.19 757.636V758.505H338.303C338.354 760.965 339.745 762.342 341.849 762.315C343.221 762.342 344.143 761.712 344.545 760.919H347.05C346.482 763.018 344.569 764.414 341.803 764.392C338.116 764.414 335.846 761.814 335.846 757.829Z" fill="#2C2E35"/>
<path d="M358.356 764.154H355.898V751.369H358.262V753.44H358.404C358.994 752.089 360.224 751.2 362.092 751.173C364.667 751.2 366.369 752.864 366.393 755.999V764.154H363.887V756.334C363.911 754.477 362.917 753.368 361.288 753.346C359.562 753.368 358.356 754.528 358.356 756.576" fill="#2C2E35"/>
<path d="M373.528 762.413C375.559 762.413 376.765 761.063 376.741 759.519V758.356L373.809 758.552C372.204 758.672 371.185 759.299 371.161 760.58C371.185 761.786 372.18 762.413 373.528 762.413ZM373.431 756.719C374.281 756.646 376.197 756.55 376.741 756.526V755.515C376.741 754.066 375.891 753.221 374.187 753.197C372.745 753.221 371.871 753.897 371.636 754.84H369.178C369.39 752.742 371.33 751.195 374.281 751.171C376.291 751.195 379.198 751.94 379.198 755.657V764.15H376.789V762.413H376.695C376.245 763.357 375.087 764.439 373.008 764.439C370.62 764.439 368.776 763.041 368.752 760.529C368.776 757.635 371.209 756.866 373.431 756.719Z" fill="#2C2E35"/>
<path d="M387.925 764.154H385.28L380.74 751.369H383.388L386.553 761.206H386.647L389.817 751.369H392.462" fill="#2C2E35"/>
<path d="M402.409 756.626C402.409 754.694 401.179 753.244 399.29 753.244C397.328 753.244 396.053 754.814 395.935 756.626H402.409ZM393.475 757.829C393.475 753.898 395.766 751.199 399.242 751.172C402.128 751.199 404.843 753.003 404.819 757.636V758.505H395.935C395.983 760.965 397.374 762.342 399.478 762.315C400.85 762.342 401.772 761.712 402.174 760.919H404.679C404.111 763.018 402.198 764.414 399.432 764.392C395.744 764.414 393.475 761.814 393.475 757.829Z" fill="#2C2E35"/>
<path d="M407.285 751.365H409.649V753.391H409.791C410.241 752.013 411.517 751.172 412.956 751.172C413.264 751.172 413.762 751.198 413.998 751.217V753.632C413.811 753.557 413.243 753.463 412.72 753.484C411.021 753.463 409.743 754.693 409.743 756.333V764.15H407.285" fill="#2C2E35"/>
<path d="M420.066 757.829C420.066 753.898 422.358 751.197 425.882 751.172C428.741 751.197 430.821 752.909 431.081 755.517H428.672C428.409 754.308 427.49 753.298 425.93 753.298C423.896 753.298 422.551 755.007 422.524 757.736C422.551 760.531 423.872 762.267 425.93 762.267C427.324 762.267 428.363 761.471 428.672 760.097H431.081C430.821 762.581 428.883 764.414 425.93 764.392C422.264 764.414 420.066 761.667 420.066 757.829Z" fill="#2C2E35"/>
<path d="M438.744 762.316C441.014 762.316 442.1 760.244 442.1 757.829C442.1 755.369 441.014 753.271 438.744 753.298C436.453 753.271 435.365 755.369 435.341 757.829C435.365 760.244 436.453 762.316 438.744 762.316ZM432.881 757.829C432.881 753.826 435.199 751.199 438.744 751.173C442.266 751.199 444.584 753.826 444.608 757.829C444.584 761.761 442.266 764.414 438.744 764.392C435.199 764.414 432.881 761.761 432.881 757.829Z" fill="#2C2E35"/>
<path d="M447.014 751.365H449.377V753.436H449.519C450.039 752.013 451.293 751.198 452.923 751.172C454.6 751.198 455.761 752.04 456.326 753.436H456.42C457.034 752.061 458.382 751.198 460.201 751.172C462.471 751.198 464.079 752.643 464.079 755.561V764.15H461.619V755.803C461.619 754.093 460.558 753.364 459.255 753.342C457.674 753.364 456.752 754.452 456.752 755.998V764.15H454.341V755.658C454.319 754.286 453.37 753.364 452.025 753.342C450.653 753.364 449.471 754.546 449.471 756.285V764.15H447.014" fill="#2C2E35"/>
<path d="M468.054 766.705H465.832L471.224 746.298H473.443" fill="#2C2E35"/>
<path d="M475.238 751.365H477.602V753.436H477.744C478.264 752.013 479.518 751.198 481.147 751.172C482.825 751.198 483.985 752.04 484.551 753.436H484.645C485.258 752.061 486.606 751.198 488.426 751.172C490.696 751.198 492.304 752.643 492.304 755.561V764.15H489.844V755.803C489.844 754.093 488.782 753.364 487.48 753.342C485.899 753.364 484.977 754.452 484.977 755.998V764.15H482.565V755.658C482.544 754.286 481.595 753.364 480.25 753.342C478.878 753.364 477.696 754.546 477.696 756.285V764.15H475.238" fill="#2C2E35"/>
<path d="M499.438 762.413C501.469 762.413 502.675 761.063 502.651 759.519V758.356L499.719 758.552C498.114 758.672 497.095 759.299 497.071 760.58C497.095 761.786 498.09 762.413 499.438 762.413ZM499.344 756.719C500.193 756.646 502.107 756.55 502.651 756.526V755.515C502.651 754.066 501.801 753.221 500.097 753.197C498.655 753.221 497.782 753.897 497.546 754.84H495.088C495.3 752.742 497.243 751.195 500.193 751.171C502.201 751.195 505.108 751.94 505.108 755.657V764.15H502.699V762.413H502.605C502.155 763.357 500.997 764.439 498.918 764.439C496.53 764.439 494.689 763.041 494.662 760.529C494.689 757.635 497.12 756.866 499.344 756.719Z" fill="#2C2E35"/>
<path d="M508.088 751.365H510.452V753.391H510.594C511.044 752.013 512.319 751.172 513.761 751.172C514.067 751.172 514.565 751.198 514.801 751.217V753.632C514.613 753.557 514.045 753.463 513.523 753.484C511.824 753.463 510.545 754.693 510.545 756.333V764.15H508.088" fill="#2C2E35"/>
<path d="M516.646 751.365H519.01V753.436H519.152C519.672 752.013 520.926 751.198 522.556 751.172C524.233 751.198 525.394 752.04 525.959 753.436H526.053C526.667 752.061 528.015 751.198 529.834 751.172C532.104 751.198 533.712 752.643 533.712 755.561V764.15H531.252V755.803C531.252 754.093 530.191 753.364 528.888 753.342C527.307 753.364 526.385 754.452 526.385 755.998V764.15H523.973V755.658C523.952 754.286 523.003 753.364 521.658 753.342C520.286 753.364 519.104 754.546 519.104 756.285V764.15H516.646" fill="#2C2E35"/>
<path d="M541.989 762.316C544.258 762.316 545.344 760.244 545.344 757.829C545.344 755.369 544.258 753.271 541.989 753.298C539.697 753.271 538.609 755.369 538.585 757.829C538.609 760.244 539.697 762.316 541.989 762.316ZM536.125 757.829C536.125 753.826 538.443 751.199 541.989 751.173C545.51 751.199 547.828 753.826 547.852 757.829C547.828 761.761 545.51 764.414 541.989 764.392C538.443 764.414 536.125 761.761 536.125 757.829Z" fill="#2C2E35"/>
<path d="M549.691 757.829C549.691 753.898 551.983 751.197 555.507 751.172C558.366 751.197 560.446 752.909 560.706 755.517H558.297C558.034 754.308 557.115 753.298 555.555 753.298C553.521 753.298 552.176 755.007 552.152 757.736C552.176 760.531 553.497 762.267 555.555 762.267C556.949 762.267 557.988 761.471 558.297 760.097H560.706C560.446 762.581 558.508 764.414 555.555 764.392C551.889 764.414 549.691 761.667 549.691 757.829Z" fill="#2C2E35"/>
<path d="M568.362 762.316C570.632 762.316 571.717 760.244 571.717 757.829C571.717 755.369 570.632 753.271 568.362 753.298C566.07 753.271 564.982 755.369 564.956 757.829C564.982 760.244 566.07 762.316 568.362 762.316ZM562.498 757.829C562.498 753.826 564.816 751.199 568.362 751.173C571.883 751.199 574.201 753.826 574.225 757.829C574.201 761.761 571.883 764.414 568.362 764.392C564.816 764.414 562.498 761.761 562.498 757.829Z" fill="#2C2E35"/>
<path d="M582.591 753.344H579.895V764.154H577.438V753.344H575.5V751.369H577.438V749.868C577.438 747.603 578.855 746.301 581.173 746.301C581.763 746.301 582.379 746.373 582.827 746.443V748.568C582.403 748.474 582.047 748.474 581.787 748.474C580.511 748.474 579.895 749.002 579.895 750.259V751.369H582.591" fill="#2C2E35"/>
<path d="M590.818 753.344H588.122V764.154H585.664V753.344H583.727V751.369H585.664V749.868C585.664 747.603 587.082 746.301 589.4 746.301C589.989 746.301 590.606 746.373 591.053 746.443V748.568C590.63 748.474 590.274 748.474 590.014 748.474C588.738 748.474 588.122 749.002 588.122 750.259V751.369H590.818" fill="#2C2E35"/>
<path d="M600.952 756.626C600.952 754.694 599.722 753.244 597.833 753.244C595.871 753.244 594.596 754.814 594.475 756.626H600.952ZM592.018 757.829C592.018 753.898 594.309 751.199 597.785 751.172C600.671 751.199 603.386 753.003 603.362 757.636V758.505H594.475C594.526 760.965 595.917 762.342 598.021 762.315C599.393 762.342 600.315 761.712 600.717 760.919H603.222C602.654 763.018 600.741 764.414 597.975 764.392C594.287 764.414 592.018 761.814 592.018 757.829Z" fill="#2C2E35"/>
<path d="M614.198 756.626C614.198 754.694 612.968 753.244 611.079 753.244C609.117 753.244 607.842 754.814 607.721 756.626H614.198ZM605.264 757.829C605.264 753.898 607.555 751.199 611.031 751.172C613.917 751.199 616.632 753.003 616.608 757.636V758.505H607.721C607.772 760.965 609.163 762.342 611.267 762.315C612.639 762.342 613.561 761.712 613.963 760.919H616.468C615.9 763.018 613.987 764.414 611.221 764.392C607.534 764.414 605.264 761.814 605.264 757.829Z" fill="#2C2E35"/>
<path d="M17.9555 706.003H19.8448V729.254H17.9555V706.003ZM7.87636 713.826H13.0727V706.542H14.9647V728.075H13.0727V715.485H7.87636V713.826ZM3.46526 721.538C5.93345 721.512 8.24356 721.354 11.0253 720.791L11.2879 722.557C8.24354 723.2 5.69498 723.334 2.94004 723.361H1.46875V708.522H3.46526M41.8012 729.254H39.8074V706.003H41.8012V729.254ZM29.7256 722.128C31.9848 722.158 33.5605 719.665 33.5605 715.863C33.5605 712.113 31.9848 709.621 29.7256 709.594C27.4155 709.621 25.8397 712.113 25.8397 715.863C25.8397 719.665 27.4155 722.158 29.7256 722.128ZM29.7256 707.775C33.0862 707.799 35.5276 710.932 35.5544 715.863C35.5276 720.842 33.0862 723.977 29.7256 724.004C26.3141 723.977 23.8968 720.842 23.8968 715.863C23.8968 710.932 26.3141 707.799 29.7256 707.775ZM55.2007 715.485H48.6912V721.699H55.2007V715.485ZM64.6018 729.254H62.6052V716.345H57.1436V723.414H46.6438V707.826H48.6912V713.879H55.2007V707.826H57.1436V714.63H62.6052V706.003H64.6018" fill="#2C2E35"/>
<path d="M20.1577 752.521L19.2117 754.239C15.7707 753.433 12.1743 750.943 10.6789 747.566C9.18355 750.943 5.58713 753.433 2.14614 754.239L1.20282 752.521C5.16639 751.747 9.5775 748.236 9.6043 744.273V742.45H11.7053V744.273C11.7053 748.236 16.1674 751.774 20.1577 752.521ZM0.361328 759.218H21.2056V760.934H0.361328V759.218Z" fill="#2C2E35"/>
<path d="M38.653 740.843H40.7004V750.11H44.4817V751.879H40.7004V764.094H38.653V740.843ZM32.5079 744.807H25.9476V756.483H32.5079V744.807ZM34.5045 758.147H24.002V743.201H34.5045V758.147Z" fill="#2C2E35"/>
<path d="M64.1745 755.094H48.4194V742.828H63.9092V744.541H50.4722V748.022H63.4376V749.684H50.4722V753.379H64.1745V755.094ZM45.7422 759.326H66.5864V761.041H45.7422V759.326Z" fill="#2C2E35"/>
<path d="M88.2359 752.521L87.2899 754.239C83.8489 753.433 80.2524 750.943 78.7571 747.566C77.2617 750.943 73.6653 753.433 70.2243 754.239L69.2809 752.521C73.2445 751.747 77.6556 748.236 77.6824 744.273V742.45H79.7835V744.273C79.7835 748.236 84.2455 751.774 88.2359 752.521ZM68.4395 759.218H89.2837V760.934H68.4395V759.218Z" fill="#2C2E35"/>
<path d="M109.559 754.613H102.47V759.434H111.973V761.146H91.1289V759.434H100.474V754.613H93.8061V742.722H109.296V744.435H95.8562V747.755H108.824V749.417H95.8562V752.898H109.559" fill="#2C2E35"/>
<path d="M119.905 756.968C122.164 756.997 123.713 754.505 123.687 750.702C123.713 746.953 122.164 744.461 119.905 744.434C117.676 744.461 116.127 746.953 116.127 750.702C116.127 754.505 117.676 756.997 119.905 756.968ZM125.576 749.684H130.67V740.843H132.667V764.094H130.67V751.399H125.603C125.367 755.979 123.108 758.817 119.905 758.844C116.545 758.817 114.184 755.684 114.237 750.702C114.184 745.771 116.545 742.638 119.905 742.614C123.03 742.638 125.262 745.345 125.576 749.684Z" fill="#2C2E35"/>
</svg>
