<svg width="294" height="171" viewBox="0 0 294 171" fill="none" xmlns="http://www.w3.org/2000/svg">
<path d="M76.0293 68.9707H230.451L236.638 36.6162H69.8442L76.0293 68.9707Z" fill="#ADD8E6"/>
<path d="M236.639 36.6175L242.826 4.26492H63.6562L69.8433 36.6175" fill="#ADD8E6"/>
<path d="M82.2173 101.324H224.261L230.45 68.9714H76.0283L82.2173 101.324Z" fill="#ADD8E6"/>
<path d="M88.4068 133.679H218.076L224.263 101.324H82.2197" fill="#ADD8E6"/>
<path d="M213.386 158.202L218.075 133.679H88.4038L93.0932 158.202C93.9627 162.746 97.9357 166.032 102.564 166.032H203.915C208.541 166.032 212.516 162.746 213.386 158.202Z" fill="#774927"/>
<path d="M242.826 4.2646L213.388 158.201C212.519 162.745 208.544 166.033 203.917 166.033H102.565C97.9383 166.033 93.9635 162.745 93.0958 158.201L63.6562 4.2646H242.826Z" stroke="#2C2E35" stroke-width="8.50329" stroke-miterlimit="10" stroke-linecap="round" stroke-linejoin="round"/>
<path d="M219.538 126.044L274.636 88.4934C281.913 83.5351 287.293 75.8091 289.062 66.4696C292.597 47.8044 280.331 29.8046 261.665 26.2694C253.139 24.6539 244.751 26.3361 237.818 30.4209" stroke="#2C2E35" stroke-width="8.50329" stroke-miterlimit="10" stroke-linecap="round" stroke-linejoin="round"/>
<path d="M151.634 159.23H148.982V149.691H145.303V147.512H148.982V140.198H151.634V159.23ZM136.92 156.366L135.465 154.352C138.48 152.774 140.343 150.998 141.433 148.901L135.938 149.392L135.552 147.129L142.267 146.742C142.481 145.93 142.63 145.076 142.695 144.177H136.578V142.037H145.345C145.345 147.896 143.764 152.792 136.92 156.366Z" fill="white"/>
<path d="M169.527 159.23H166.832V140.198H169.527V159.23ZM153.745 154.869L153.488 152.686L155.712 152.664V144.134H154.001V141.951H164.779V144.134H163.069V152.366C163.925 152.301 164.738 152.217 165.55 152.13L165.678 154.099C161.634 154.761 157.23 154.847 153.745 154.869ZM158.28 144.134V152.623C159.006 152.602 159.754 152.578 160.502 152.537V144.134H158.28Z" fill="white"/>
<path d="M44.3471 4.26377H25.4424V130.785H44.3471" stroke="#2C2E35" stroke-width="1.69987" stroke-miterlimit="10"/>
<path d="M44.3471 135.09H25.4424V166.033H44.3471" stroke="#2C2E35" stroke-width="1.69987" stroke-miterlimit="10"/>
<path d="M7.54544 70.801V63.8287H7.41785L2.96796 70.6734V70.801H7.54544ZM0.186523 70.8422L6.7328 60.7058H10.111V70.801H12.0797V73.0249H10.111V75.8476H7.50226V73.0249H0.186523" fill="#2C2E35"/>
<path d="M8.61035 157.307H5.87014V144.819H5.78573L2.23877 147.084V144.603L6.00165 142.165H8.61035" fill="#2C2E35"/>
<path d="M162.826 74.2841V76.6074H154.729V77.9415H160.502V83.3012H148.84V84.5663H161.054V86.7746H145.965V81.2309H157.604V80.1498H145.942V77.9415H151.784V76.6074H143.733V74.2841H162.826ZM160.41 66.5781V73.1799H146.103V66.5781H160.41ZM148.978 68.8554V70.9257H157.489V68.8554H148.978Z" fill="black"/>
</svg>
