<svg width="209" height="194" viewBox="0 0 209 194" fill="none" xmlns="http://www.w3.org/2000/svg">
<path d="M7.44032 0.660461H21.2422L27.12 28.3966C28.0212 32.5805 28.4945 36.1576 28.5401 39.1279C28.9576 33.7363 29.9039 27.2973 31.3792 19.8109C32.6773 13.4293 33.9871 7.04578 35.3088 0.660461H49.243V48.407H40.2284V22.8496C40.2284 17.4999 40.4158 12.8552 40.7907 8.91538C40.2835 12.24 39.447 17.2037 38.2812 23.8066L33.1962 48.407H24.0152C22.4304 41.7586 20.2624 31.7539 17.5111 18.393C17.1804 15.9718 16.6408 12.3392 15.8926 7.49527C16.3997 14.8038 16.6533 22.8275 16.6533 31.5665V48.407H7.44032" fill="#2C2E35"/>
<path d="M73.9882 27.4384C73.2841 23.3001 72.4255 17.06 71.4127 8.718C70.9716 12.8997 70.069 19.1398 68.7048 27.4384H73.9882ZM65.601 0.527039H77.5208L87.5928 48.4059H77.5208L75.276 35.2325H67.5173L65.2703 48.4059H55.2006" fill="#2C2E35"/>
<path d="M108.375 21.231C110.091 21.231 111.236 20.747 111.809 19.779C112.227 19.0748 112.436 17.8197 112.437 16.0137C112.437 13.5042 112.282 11.8534 111.974 11.061C111.401 9.54237 110.091 8.78306 108.044 8.78306H103.719V21.231H108.375ZM93.8463 0.660461H110.125C118.115 0.660461 122.132 4.898 122.178 13.3731C122.198 16.6528 121.956 19.063 121.451 20.6037C120.657 23.0705 119.028 24.6777 116.564 25.4252C118.39 25.9765 119.711 27.143 120.526 28.9247C121.142 30.2677 121.516 32.117 121.649 34.4729L121.847 40.0188C122.066 43.4095 122.715 46.2052 123.794 48.406H113.592C112.734 46.7999 112.238 44.6319 112.106 41.9019C112.106 40.6472 112.084 38.7537 112.04 36.2215C111.952 34.0201 111.677 32.4243 111.215 31.4342C110.487 29.8943 109.178 29.1239 107.286 29.1232H103.719V48.406H93.8463" fill="#2C2E35"/>
<path d="M129.156 0.660461H142.959L148.836 28.3966C149.738 32.5805 150.211 36.1576 150.256 39.1279C150.674 33.7363 151.621 27.2973 153.095 19.8109C154.394 13.4293 155.704 7.04578 157.025 0.660461H170.96V48.407H161.946V22.8496C161.946 17.4999 162.133 12.8552 162.507 8.91538C162 12.24 161.163 17.2037 159.997 23.8066L154.912 48.407H145.731C144.146 41.7586 141.979 31.7539 139.228 18.393C138.898 15.9718 138.358 12.3392 137.61 7.49527C138.115 14.8038 138.369 22.8275 138.369 31.5665V48.407H129.156" fill="#2C2E35"/>
<path d="M193.953 41.5711C196.881 41.5711 198.345 39.3171 198.345 34.8091C198.345 34.3703 198.323 33.6775 198.278 32.7308C198.234 31.7855 198.212 31.06 198.212 30.5543L198.345 16.4348C198.345 10.4964 196.859 7.52758 193.887 7.52832C190.983 7.52832 189.583 10.6839 189.695 16.9961C189.715 18.139 189.715 19.5577 189.695 21.252C189.628 26.706 189.76 31.6319 190.09 36.0296C190.376 39.7232 191.663 41.5704 193.953 41.5711ZM194.515 0C200.827 0 204.898 2.48739 206.728 7.46217C207.677 10.0378 208.173 15.189 208.217 22.9157C208.261 24.6776 208.305 27.319 208.349 30.8399C208.393 36.7621 207.579 41.0988 205.907 43.8501C203.749 47.3945 199.875 49.1663 194.284 49.1656C188.384 49.1656 184.355 47.1405 182.199 43.0905C180.657 40.1848 179.909 35.507 179.954 29.057V18.9862C179.998 12.4928 180.781 7.94694 182.302 5.34856C184.421 1.7836 188.492 0.00111037 194.515 0.00111037" fill="#2C2E35"/>
<path d="M5.34393 79.2083C5.34393 73.4198 6.08154 69.2374 7.55677 66.6611C9.53771 63.1844 13.2027 61.4453 18.5516 61.4438C23.7027 61.4438 27.346 62.8419 29.4813 65.638C31.3314 68.0592 32.2561 71.9116 32.2553 77.195V79.2083L22.878 79.2745C22.878 78.8349 22.9001 78.1583 22.9442 77.2447C22.9883 76.3318 23.0103 75.6323 23.0103 75.1465C23.0103 70.8766 21.6241 68.7417 18.8515 68.7417C16.3847 68.7417 15.1512 71.1523 15.1512 75.9734V96.6101C15.1512 101.101 16.3626 103.347 18.7853 103.347C21.5785 103.347 22.9427 100.914 22.878 96.0478V92.1855L32.1892 92.2848C32.1892 92.4612 32.2002 92.7254 32.2223 93.0775C32.2443 93.4296 32.2553 93.7045 32.2553 93.9022C32.2553 99.3842 31.377 103.401 29.6202 105.953C27.4901 109.058 23.8119 110.61 18.5858 110.609C13.0288 110.609 9.29552 108.849 7.38587 105.328C6.02531 102.819 5.34467 98.5367 5.34393 92.4821" fill="#2C2E35"/>
<path d="M57.0724 103.016C60.0001 103.017 61.4639 100.763 61.4639 96.2539C61.4639 95.8158 61.4418 95.123 61.3977 94.1756C61.3536 93.2303 61.3316 92.5052 61.3316 92.0002L61.4639 77.8797C61.4646 71.9427 59.9791 68.9742 57.0073 68.9742C54.101 68.9742 52.7033 72.1298 52.8143 78.4409C52.8356 79.5846 52.8356 81.0032 52.8143 82.6967C52.7481 88.1508 52.88 93.0767 53.2101 97.4744C53.4945 101.169 54.7823 103.016 57.0735 103.017M57.6346 61.4459C63.9457 61.4459 68.0168 63.9333 69.8478 68.9081C70.796 71.4837 71.2925 76.6349 71.3374 84.3616C71.3815 86.1228 71.4256 88.7638 71.4697 92.2847C71.5138 98.2069 70.6993 102.544 69.0264 105.295C66.869 108.839 62.995 110.612 57.4042 110.612C51.5033 110.612 47.4746 108.586 45.3179 104.535C43.7773 101.63 43.029 96.9526 43.0731 90.5018V80.4321C43.1165 73.9387 43.8997 69.3925 45.4227 66.7934C47.5411 63.2284 51.6117 61.4459 57.6346 61.4459Z" fill="#2C2E35"/>
<path d="M83.5442 62.1053H106.063V70.5586H93.4827L93.3504 80.7607H104.907V89.0829H93.3504V109.853H83.5442" fill="#2C2E35"/>
<path d="M115.925 62.1053H138.443V70.5586H125.863L125.731 80.7607H137.288V89.0829H125.73V109.853H115.923" fill="#2C2E35"/>
<path d="M148.238 62.1053H170.691V70.7571H157.978V81.1256H169.403V89.5768H157.978V101.135H170.691V109.853H148.238" fill="#2C2E35"/>
<path d="M182.038 62.1053H204.491V70.7571H191.779V81.1256H203.204V89.5768H191.779V101.135H204.491V109.853H182.038" fill="#2C2E35"/>
<path d="M205.411 160.25V190.675C205.411 192.154 204.195 193.371 202.716 193.371H128.276C126.796 193.371 125.58 192.154 125.58 190.675V161.419C125.58 159.439 123.528 158.15 121.786 158.914C121.69 158.961 121.571 159.033 121.451 159.105L70.9579 190.651C70.9336 190.675 70.8873 190.699 70.8619 190.722L67.0923 193.085C65.3017 194.206 62.9643 192.894 62.9643 190.77V161.419C62.9643 159.416 60.9124 158.15 59.1703 158.914C59.0744 158.961 58.9554 159.033 58.8352 159.105L8.31896 190.651C8.27155 190.675 8.24619 190.699 8.19988 190.746L4.45335 193.085C2.66278 194.206 0.324249 192.919 0.324249 190.77V159.056C0.324249 158.125 0.801671 157.243 1.59001 156.766L58.8352 120.996C60.6258 119.874 62.9643 121.163 62.9643 123.311V152.661C62.9643 154.641 65.0173 155.931 66.7571 155.166C66.8531 155.12 66.9732 155.047 67.0923 154.977L117.585 123.43C117.61 123.407 117.656 123.381 117.681 123.358L117.704 123.335L121.451 120.996C123.242 119.874 125.58 121.187 125.58 123.311V154.857C125.58 156.337 126.796 157.554 128.276 157.554H202.717C204.196 157.554 205.414 158.769 205.414 160.25" fill="#2C2E35"/>
</svg>
